<svg width="210mm" height="297mm" enable-background="new 0 0 800 600" version="1.1" viewBox="0 0 793.69 1122.5" xml:space="preserve" xmlns="http://www.w3.org/2000/svg" xmlns:xlink="http://www.w3.org/1999/xlink"><defs><clipPath id="XMLID_18_"><use width="100%" height="100%" xlink:href="#XMLID_11_"/></clipPath></defs>


<g transform="translate(865.34,-485.16)"><rect x="-865.34" y="485.16" width="793.69" height="1122.5" fill="#fff" style="paint-order:stroke fill markers"/><path d="m-683.49 1362.1c-0.9971-0.043-1.9618 0.082-2.8668 0.3449l-5.0127-3.6578 8.2841-1.9073c2.9913-0.6872 4.8545-3.6629 4.1647-6.6439-0.6924-2.9822-3.6785-4.8403-6.6698-4.1518l-12.322 2.8383c-0.34749 0.08-0.67424 0.1919-0.98802 0.3319 0.46548-1.8593 0.75333-3.7913 0.8402-5.779 0.0687-1.53 0.0169-3.0367-0.14651-4.5135l9.7415 4.297c2.8085 1.2383 6.0915-0.026 7.3337-2.824 1.2434-2.7968-0.0246-6.0694-2.8331-7.3077l-6.7528-2.9796 6.9628-3.2895c1.058 0.5135 2.2341 0.8234 3.4827 0.8778 4.8818 0.2165 9.0154-3.5514 9.2332-8.415 0.21653-4.8649-3.5657-8.9855-8.4487-9.1995-4.5304-0.201-8.415 3.0315-9.1243 7.3842l-7.2883 3.4399 2.2548-8.1635c0.81687-2.9511-0.9206-6.0007-3.8821-6.8124s-6.0228 0.9206-6.837 3.8691l-3.0432 11.015c-2.4389-2.2418-5.263-4.0778-8.371-5.3926l8.9078-6.99c2.4117-1.8931 2.8292-5.3758 0.92837-7.7784-1.9008-2.4039-5.3952-2.8188-7.8082-0.927l-6.6776 5.2408 0.38769-8.7028c1.932-1.5339 3.2156-3.8587 3.3336-6.509 0.21653-4.8649-3.5644-8.9868-8.4488-9.2021-4.8818-0.2166-9.0154 3.554-9.2319 8.4176-0.13874 3.1222 1.3692 5.9359 3.7576 7.6085l-0.31896 7.1961-5.3771-5.0489c-2.2315-2.0966-5.7518-1.9929-7.8601 0.2346-2.1031 2.225-2.0007 5.731 0.23468 7.8303l8.1298 7.6332c-3.3634 1.0451-6.4727 2.6814-9.2021 4.7936l-2.0072-10.993c-0.54846-3.0107-3.4451-5.0049-6.4649-4.4578-3.0211 0.5472-5.0257 3.4321-4.4746 6.4416l1.5222 8.3333-5.7375-3.3595c6e-3 -0.093 0.0156-0.1867 0.0207-0.2826 0.21654-4.8636-3.567-8.983-8.4487-9.1995-4.8831-0.2166-9.0167 3.5527-9.2345 8.4176-0.21524 4.8662 3.567 8.9854 8.45 9.2007 0.68979 0.03 1.3653-0.022 2.0175-0.1426l6.9537 4.074-6.9939 2.3702c-2.9057 0.9855-4.4591 4.1336-3.471 7.0315 0.98932 2.8953 4.1479 4.4448 7.0536 3.4594l10.064-3.414c-0.25803 1.355-0.42399 2.7423-0.48882 4.1608-0.0934 2.1161 0.0441 4.1894 0.38639 6.1952-0.32675-0.188-0.67943-0.3449-1.0529-0.4668l-12.021-3.9171c-2.9213-0.9491-6.0591 0.6367-7.0134 3.545-0.9556 2.9096 0.63794 6.037 3.5579 6.9874l8.0779 2.6295-5.1113 3.0808c-0.73129-0.2334-1.5041-0.3786-2.3067-0.4123-4.8843-0.2165-9.018 3.5527-9.2345 8.4202-0.21524 4.8649 3.567 8.9842 8.45 9.1995 4.8805 0.2165 9.0154-3.554 9.2319-8.4176 3e-3 -0.065 3e-3 -0.1284 5e-3 -0.1919l3.8094-2.2924-1.237 7.2546c-0.51215 3.0159 1.5261 5.8788 4.555 6.3897 3.0276 0.5121 5.897-1.5209 6.4105-4.5368l1.9838-11.668c2.706 2.7022 5.9515 4.8779 9.569 6.3547l-9.1878 7.3051c-2.4026 1.9073-2.7929 5.3939-0.87781 7.7862 1.9138 2.3897 5.4134 2.7825 7.8134 0.8752l6.6426-5.2798-0.20486 5.3641c-2.2042 1.5144-3.6954 4.0026-3.8237 6.8734-0.21524 4.8649 3.5657 8.9842 8.4487 9.2021 4.8818 0.2152 9.0167-3.554 9.2345-8.4176 0.12837-2.9174-1.1786-5.5664-3.3025-7.2675l0.17634-4.6315 5.4082 5.0114c2.2483 2.0824 5.7673 1.9579 7.8588-0.2827 2.0914-2.2392 1.9657-5.744-0.28396-7.8302l-8.406-7.7901c3.8017-1.1475 7.2857-3.0522 10.267-5.543l0.91412 11.494c0.24246 3.0496 2.92 5.3226 5.9826 5.084 3.06-0.2424 5.3446-2.9122 5.1022-5.9631l-0.58478-7.3362 4.2944 3.1352c-0.0376 4.7262 3.6811 8.6666 8.4565 8.8792 4.8818 0.2153 9.0167-3.5527 9.2319-8.4176 0.21783-4.8649-3.5644-8.9842-8.4474-9.2021z" fill="#fff" stroke="#000" stroke-linecap="round" stroke-linejoin="round" stroke-width="4.2646"/><path d="m-167.12 762.63c-1.1255 0-2.19 0.26321-3.1365 0.72999l-3.2791-2.1757 23.204-10.26-24.961-10.669 4.9738-2.4039c0.90374 0.41492 1.9073 0.64572 2.9654 0.64572 3.9326 0 7.121-3.1974 7.121-7.143 0-3.9469-3.1884-7.1456-7.121-7.1456-3.9339 0-7.1236 3.1988-7.1236 7.1456 0 0.0532 4e-3 0.10373 5e-3 0.15689l-3.4049 1.8101 0.0597-0.63664 2.2782-26.54-20.777 16.008-0.0687-4.1894c1.8101-1.2953 2.9939-3.4179 2.9939-5.8192 0-3.9469-3.1884-7.1456-7.1223-7.1456-3.9326 0-7.1223 3.1988-7.1223 7.1456 0 2.544 1.3277 4.778 3.3245 6.0422v3.5566l-0.16079-0.0882-0.0117-0.0233-23.62-13.796 3.9586 18.687c3e-3 0.29433 0.0324 0.59256 0.10113 0.89078l1.2681 5.5767 0.0947 0.44733 9e-3 4e-3 0.0259 0.1141-3.7057-1.9683c-0.35009-3.615-3.3894-6.4416-7.086-6.4416-3.9352 0-7.1223 3.2-7.1223 7.1456 0 3.9469 3.1871 7.1444 7.1223 7.1444 1.2629 0 2.4467-0.32934 3.4762-0.90763l3.8613 2.05-24.575 10.481 23.203 10.739-3.7265 2.448c-0.76889-0.28785-1.6013-0.44474-2.4714-0.44474-3.9326 0-7.1223 3.2-7.1223 7.1456 0 3.9482 3.1897 7.1456 7.1223 7.1456 3.9339 0 7.1223-3.1974 7.1223-7.1456 0-0.153-6e-3 -0.30471-0.0156-0.45641l4.1297-2.7631-0.63145 25.781 19.172-16.601 0.0207 5.5871c-1.9786 1.2707-3.2921 3.4931-3.2921 6.0228 0 3.9456 3.1897 7.1456 7.1223 7.1456 3.9339 0 7.1236-3.2 7.1236-7.1456 0-2.4934-1.2746-4.6886-3.2065-5.967l-0.0583-5.5443 20.225 15.413-2.2237-25.59 3.9456 2.8681v0.0791c0 3.9469 3.1871 7.1456 7.121 7.1456 3.9326 0 7.121-3.1988 7.121-7.1456-4e-3 -3.9456-3.1923-7.1443-7.1249-7.1443zm-69.331-11.374s16.276-7.2066 16.13-6.837c-2.7397 6.9512 0.27489 13.406 0.27489 13.406zm30.994-22.284c-7.3181 1.4068-11.131 7.4205-11.131 7.4205l-3.2688-17.415s14.79 9.9191 14.4 9.9943zm-12.709 52.793s1.7958-17.757 2.0448-17.447c4.6704 5.8231 11.751 6.3832 11.751 6.3832zm22.992-10.902c7.4024-0.84928 11.657-6.557 11.657-6.557l1.954 17.612s-14.003-11.012-13.611-11.055zm11.351-36.081c-4.5537-5.9139-11.625-6.614-11.625-6.614l14.011-10.79c0 1e-3 -2.1446 17.72-2.3858 17.404zm4.2438 22.504c2.9576-6.8604 0.14911-13.408 0.14911-13.408l16.19 7.0886c1e-3 0-16.497 6.684-16.339 6.3197z" fill="#fff" stroke="#000" stroke-linecap="round" stroke-linejoin="round" stroke-width="3.1741"/><path d="m-220.37 1230.8c17.228 26.154-8.7262 57.539-48.833 83.947-40.108 26.408-79.178 37.86-96.406 11.702-17.229-26.157-6.0785-80.013 34.022-106.43 40.115-26.406 93.985-15.377 111.22 10.779" stroke-width="1.2966"/><path d="m-220.37 1230.8c17.228 26.154-8.7262 57.539-48.833 83.947-40.108 26.408-79.178 37.86-96.406 11.702-17.229-26.157-6.0785-80.013 34.022-106.43 40.115-26.406 93.985-15.377 111.22 10.779z" fill="none" stroke="#000" stroke-linecap="round" stroke-linejoin="round" stroke-width="14.713"/><path d="m-306.63 1170.4c0 100.16-84.963 181.34-189.78 181.34-104.81 0-189.77-81.184-189.77-181.34 0-100.15 84.961-181.34 189.77-181.34 104.81 0 189.78 81.19 189.78 181.34" stroke-width="1.2966"/><path d="m-306.63 1170.4c0 100.16-84.963 181.34-189.78 181.34-104.81 0-189.77-81.184-189.77-181.34 0-100.15 84.961-181.34 189.77-181.34 104.81 0 189.78 81.19 189.78 181.34z" fill="none" stroke="#000" stroke-width="14.713"/><path d="m-326.33 933.59c10.924-10.294 29.324 4.3476 40.041 13.05 8.2465 6.6957 24.999 7.8549 24.532 18.505-1.2149 27.802-34.87 100.35-74.315 131.85-13.232 10.574-76.756-96.24-73.09-98.468 18.373-11.155 48.954-33.036 82.833-64.938" stroke-width="1.2966"/><path d="m-326.33 933.59c10.924-10.294 29.324 4.3476 40.041 13.05 8.2465 6.6957 24.999 7.8549 24.532 18.505-1.2149 27.802-34.87 100.35-74.315 131.85-13.232 10.574-76.756-96.24-73.09-98.468 18.373-11.155 48.954-33.036 82.833-64.938z" fill="none" stroke="#000" stroke-linecap="round" stroke-linejoin="round" stroke-width="14.713"/><path d="m-564.36 1024.5c3.1949-8.441-33.327-33.656-60.752-26.938-46.904 11.479-75.769 53.928-70.501 93.617 3.8056 28.677 27.209 71.679 88.94 78.008 15.249 1.5572 19.648-23.368 24.78-34.826 6.9148-15.445 19.212-29.856 5.1605-41.365-10.233-8.367-12.389-16.752-10.683-24.497" stroke-width="1.2966"/><path d="m-564.36 1024.5c3.1949-8.441-33.327-33.656-60.752-26.938-46.904 11.479-75.769 53.928-70.501 93.617 3.8056 28.677 27.209 71.679 88.94 78.008 15.249 1.5572 19.648-23.368 24.78-34.826 6.9148-15.445 19.212-29.856 5.1605-41.365-10.233-8.367-12.389-16.752-10.683-24.497" fill="none" stroke="#000" stroke-linecap="round" stroke-linejoin="round" stroke-width="14.713"/><path d="m-363.71 902.54c0 63.008-58.698 114.08-131.11 114.08-72.411 0-131.12-51.076-131.12-114.08 0-63.009 58.706-114.08 131.12-114.08 72.412 0 131.11 51.075 131.11 114.08" stroke-width="1.2966"/><path d="m-363.71 902.54a131.11 114.08 0 0 1-131.11 114.08 131.11 114.08 0 0 1-131.11-114.08 131.11 114.08 0 0 1 131.11-114.08 131.11 114.08 0 0 1 131.11 114.08z" fill="none" stroke="#000" stroke-linecap="round" stroke-linejoin="round" stroke-width="14.713"/><path d="m-598.31 968.95c-9.3123-5.5767-17.828-13.551-26.483-2.8733-8.2387 10.164-4.4266 22.284 2.8227 31.78 14.25 18.676 41.829 36.938 81.203 50.004 11.777 3.9093 48.41 11.151 75.661 9.6338 24.28-1.3511 96.704-6.6516 93.876-66.643-0.4992-10.637-4.2685-23.942-18.204-21.939-10.959 1.5741-20.603 10.797-30.865 14.582-24.258 8.9531-26.415 13.5-52.317 16.488-19.738 2.2626-56.064 0-83.225-9.4018-14.193-4.9142-29.667-13.967-42.469-21.63" stroke-width="1.2966"/><path d="m-598.31 968.95c-9.3123-5.5767-17.828-13.551-26.483-2.8733-8.2387 10.164-4.4266 22.284 2.8227 31.78 14.25 18.676 41.829 36.938 81.203 50.004 11.777 3.9093 48.41 11.151 75.661 9.6338 24.28-1.3511 96.704-6.6516 93.876-66.643-0.4992-10.637-4.2685-23.942-18.204-21.939-10.959 1.5741-20.603 10.797-30.865 14.582-24.258 8.9531-26.415 13.5-52.317 16.488-19.738 2.2626-56.064 0-83.225-9.4018-14.193-4.9142-29.667-13.967-42.469-21.63z" fill="none" stroke="#000" stroke-linecap="round" stroke-linejoin="round" stroke-width="14.713"/><path d="m-462.95 991.07c-5.8451 11.487-0.4603 8.0196 8.7249 13.616 18.345 11.176 19.108 44.479 38.612 66.605 7.593 8.6212 40.278 43.714 25.998 90.457 47.583-1.3342 83.152-28.576 87.693-34.64 1.5572-2.0746 3.7783-39.35-39.124-78.115-25.228-22.785-32.773-30.862-42.065-46.543-5.1164-8.6264-10.102-21.983-19.268-27.648-9.0011-5.5391-20.632-2.8305-30.47 6.2497-1.2486 1.1488-23.46-3.0315-30.101 10.019" stroke-width="1.2966"/><path d="m-462.95 991.07c-5.8451 11.487-0.4603 8.0196 8.7249 13.616 18.345 11.176 19.108 44.479 38.612 66.605 7.593 8.6212 40.278 43.714 25.998 90.457 47.583-1.3342 83.152-28.576 87.693-34.64 1.5572-2.0746 3.7783-39.35-39.124-78.115-25.228-22.785-32.773-30.862-42.065-46.543-5.1164-8.6264-10.102-21.983-19.268-27.648-9.0011-5.5391-20.632-2.8305-30.47 6.2497-1.2486 1.1488-23.46-3.0315-30.101 10.019z" fill="none" stroke="#000" stroke-linecap="round" stroke-linejoin="round" stroke-width="14.713"/><path d="m-321.37 882.46c-0.47197-7.6578-2.5115-21.176 1.4431-27.91 12.575-21.303 29.895-8.0014 34.643 6.5674 1.0269 3.1469 2.1187 6.3638 3.2182 9.512 5.8879-16.358 24.913-32.471 42.124-32.564 19.834-0.1167 36.117 14.496 41.018 32.09 5.3213 19.086-3.0328 39.129-16.466 56.312-8.8066 11.281-25.24 27.046-36.909 34.547 2.6075 6.264 0.98413 15.632-4.612 19.785-6.2406 4.6393-17.822 3.3323-27.543-0.87003-50.25-21.686-56.269-39.308-56.248-48.727 0.0143-5.8477 4.721-10.86 9.827-13.083 3.9936-1.7297 8.6199-1.5378 9.9697-1.4146 1.1177 0.0921-0.0259-27.29-0.46549-34.245" stroke-width="1.2966"/><path d="m-321.37 882.46c-0.47197-7.6578-2.5115-21.176 1.4431-27.91 12.575-21.303 29.895-8.0014 34.643 6.5674 1.0269 3.1469 2.1187 6.3638 3.2182 9.512 5.8879-16.358 24.913-32.471 42.124-32.564 19.834-0.1167 36.117 14.496 41.018 32.09 5.3213 19.086-3.0328 39.129-16.466 56.312-8.8066 11.281-25.24 27.046-36.909 34.547 2.6075 6.264 0.98413 15.632-4.612 19.785-6.2406 4.6393-17.822 3.3323-27.543-0.87003-50.25-21.686-56.269-39.308-56.248-48.727 0.0143-5.8477 4.721-10.86 9.827-13.083 3.9936-1.7297 8.6199-1.5378 9.9697-1.4146 1.1177 0.0921-0.0259-27.29-0.46549-34.245z" fill="none" stroke="#000" stroke-linecap="round" stroke-linejoin="round" stroke-width="14.713"/><path d="m-282.59 870.19c2.5569 9.1878 2.5854 12.126 4.8921 14.583" stroke-width="1.2966"/><path d="m-282.59 870.19c2.5569 9.1878 2.5854 12.126 4.8921 14.583" fill="none" stroke="#000" stroke-linecap="round" stroke-linejoin="round" stroke-width="14.713"/><path d="m-299.96 939.85c10.941 9.3849 27.449 19.255 48.584 21.121" stroke-width="1.2966"/><path d="m-299.96 939.85c10.941 9.3849 27.449 19.255 48.584 21.121" fill="none" stroke="#000" stroke-linecap="round" stroke-linejoin="round" stroke-width="14.713"/><path d="m-521.37 1087.4c7.3907-1.3083 21.967-2.2548 28.153 1.8762 19.366 12.931 13.756 22.535 1.7401 27.706-3.0561 1.3135-5.2396-0.5459-7.9781 1.5806 17.244 2.8033 35.711 17.084 39.439 34.482 4.2944 20.059-6.0111 41.298-21.558 51.983-16.851 11.581-37.489 9.6261-56.526 1.5948-12.486-5.2668-30.811-16.783-40.358-26.177-5.3524 4.6756-14.203 1.3122-19.309-3.0017-5.6844-4.8286-8.17-19.256-7.0199-30.509 5.3589-52.226 26.542-57.93 35.424-60.962 5.508-1.8736 11.224 1.2486 14.395 5.7103 2.4856 3.4775 3.5787 3.4775 3.7498 4.8779 0.14263 1.1644 19.453-7.3051 29.848-9.1606" stroke-width="1.2966"/><path d="m-521.37 1087.4c7.3907-1.3083 21.967-2.2548 28.153 1.8762 19.366 12.931 13.756 22.535 1.7401 27.706-3.0561 1.3135-5.2396-0.5459-7.9781 1.5806 17.244 2.8033 35.711 17.084 39.439 34.482 4.2944 20.059-6.0111 41.298-21.558 51.983-16.851 11.581-37.489 9.6261-56.526 1.5948-12.486-5.2668-30.811-16.783-40.358-26.177-5.3524 4.6756-14.203 1.3122-19.309-3.0017-5.6844-4.8286-8.17-19.256-7.0199-30.509 5.3589-52.226 26.542-57.93 35.424-60.962 5.508-1.8736 11.224 1.2486 14.395 5.7103 2.4856 3.4775 3.5787 3.4775 3.7498 4.8779 0.14263 1.1644 19.453-7.3051 29.848-9.1606z" fill="none" stroke="#000" stroke-linecap="round" stroke-linejoin="round" stroke-width="14.713"/><path d="m-568.6 1125.3c-6.5168 14.128-12.326 34.057-9.6131 56.076" stroke-width="1.2966"/><path d="m-568.6 1125.3c-6.5168 14.128-12.326 34.057-9.6131 56.076" fill="none" stroke="#000" stroke-linecap="round" stroke-linejoin="round" stroke-width="14.713"/><path d="m-425.62 767.78c6.4027 14.754-35.941 49.54-95.583 75.399-59.631 25.864-113.98 32.99-120.37 18.234-6.3962-14.757 36.755-47.68 96.396-73.532 59.637-25.854 113.17-34.857 119.56-20.101" stroke-width="1.2966"/><path d="m-425.62 767.78c6.4027 14.754-35.941 49.54-95.583 75.399-59.631 25.864-113.98 32.99-120.37 18.234-6.3962-14.757 36.755-47.68 96.396-73.532 59.637-25.854 113.17-34.857 119.56-20.101z" fill="none" stroke="#000" stroke-linecap="round" stroke-linejoin="round" stroke-width="14.713"/><path d="m-481.79 683.03-183.26 79.451 63.624 72.671 0.29044-0.1154c4.7482 4.4759 30.093 4.2529 71.529-13.708 41.428-17.959 59.057-33.77 56.535-42.873l0.28785-0.12058z" stroke-width="1.2966"/><path d="m-481.79 683.03-183.26 79.451 63.624 72.671 0.29044-0.1154c4.7482 4.4759 30.093 4.2529 71.529-13.708 41.428-17.959 59.057-33.77 56.535-42.873l0.28785-0.12058z" fill="none" stroke="#000" stroke-linecap="round" stroke-linejoin="round" stroke-width="14.713"/><path d="m-481.94 682.53c4.2633 9.8348-36.436 36.952-83.953 57.555-47.524 20.612-95.134 31.78-99.402 21.941-4.2581-9.8309 36.436-36.948 83.956-57.55 47.521-20.61 95.135-31.781 99.4-21.946" stroke-width="1.2966"/><path d="m-481.94 682.53c4.2633 9.8348-36.436 36.952-83.953 57.555-47.524 20.612-95.134 31.78-99.402 21.941-4.2581-9.8309 36.436-36.948 83.956-57.55 47.521-20.61 95.135-31.781 99.4-21.946z" fill="none" stroke="#000" stroke-linecap="round" stroke-linejoin="round" stroke-width="14.713"/><path d="m-501.59 869.55c-1.8153 5.2656-7.1768 8.4397-11.976 7.1054-4.791-1.3303-7.2079-6.6892-5.3926-11.955 1.8243-5.2591 7.1884-8.441 11.982-7.0977 4.791 1.3368 7.2144 6.6815 5.3861 11.947" stroke-width="1.2966"/><path d="m-501.59 869.55c-1.8153 5.2656-7.1768 8.4397-11.976 7.1054-4.791-1.3303-7.2079-6.6892-5.3926-11.955 1.8243-5.2591 7.1884-8.441 11.982-7.0977 4.791 1.3368 7.2144 6.6815 5.3861 11.947z" fill="none" stroke="#000" stroke-width="14.713"/><path d="m-451.96 878.14c0.22043 5.5728 4.4383 10.164 9.416 10.264 4.9712 0.10762 8.8274-4.3242 8.6069-9.8841-0.23209-5.5677-4.4487-10.158-9.4199-10.265-4.9777-0.0998-8.8377 4.3242-8.603 9.8854" stroke-width="1.2966"/><path d="m-451.96 878.14c0.22043 5.5728 4.4383 10.164 9.416 10.264 4.9712 0.10762 8.8274-4.3242 8.6069-9.8841-0.23209-5.5677-4.4487-10.158-9.4199-10.265-4.9777-0.0998-8.8377 4.3242-8.603 9.8854z" fill="none" stroke="#000" stroke-width="14.713"/><path d="m-494.76 952.33c-10.486-2.4636-19.253-6.946-24.41-11.924-0.0285 0.0765-0.0687 0.13485-0.10114 0.20746-4.7871 13.419 0.71184 30.107 12.948 34.46 12.217 4.345 26.533-5.2798 31.311-18.708 0.29433-0.81168 0.39417-1.6441 0.34361-2.4636-5.8763 0.58995-12.822 0.13614-20.091-1.5728" stroke-width="1.2966"/><path d="m-494.76 952.33c-10.486-2.4636-19.253-6.946-24.41-11.924-0.0285 0.0765-0.0687 0.13485-0.10114 0.20746-4.7871 13.419 0.71184 30.107 12.948 34.46 12.217 4.345 26.533-5.2798 31.311-18.708 0.29433-0.81168 0.39417-1.6441 0.34361-2.4636-5.8763 0.58995-12.822 0.13614-20.091-1.5728z" fill="none" stroke="#000" stroke-width="14.713"/><path d="m-456.56 947.69c-15.999 9.4458-42.174 7.414-59.325-3.7148-18.433-11.947-25.947-27.766-25.947-49.121h-12.515" stroke-width="1.2966"/><path d="m-456.56 947.69c-15.999 9.4458-42.174 7.414-59.325-3.7148-18.433-11.947-25.947-27.766-25.947-49.121h-12.515" fill="none" stroke="#000" stroke-linecap="round" stroke-linejoin="round" stroke-width="14.713"/><path d="m-448.76 916.29c-2.1666 11.83-19.03 18.654-37.658 15.251-18.632-3.4127-31.978-15.769-29.809-27.608 2.1653-11.832 19.021-18.654 37.65-15.252 18.636 3.4205 31.981 15.777 29.817 27.609" stroke-width="1.2966"/><path d="m-448.76 916.29c-2.1666 11.83-19.03 18.654-37.658 15.251-18.632-3.4127-31.978-15.769-29.809-27.608 2.1653-11.832 19.021-18.654 37.65-15.252 18.636 3.4205 31.981 15.777 29.817 27.609z" fill="none" stroke="#000" stroke-linecap="round" stroke-linejoin="round" stroke-width="14.713"/><path d="m-407.96 859.11-20.506-27.837-10.141 9.2798 24.001 24.648z" stroke-width="1.2966"/><path d="m-407.96 859.11-20.506-27.837-10.141 9.2798 24.001 24.648z" fill="none" stroke="#000" stroke-width="14.713"/><path d="m-344.94 1203.6c-2.1913 12.777-11.6 21.832-21.019 20.216-9.4251-1.6104-15.279-13.281-13.091-26.063 2.1913-12.779 11.601-21.841 21.021-20.225 9.4199 1.6182 15.283 13.292 13.089 26.072" stroke-width="1.2966"/><path d="m-344.94 1203.6c-2.1913 12.777-11.6 21.832-21.019 20.216-9.4251-1.6104-15.279-13.281-13.091-26.063 2.1913-12.779 11.601-21.841 21.021-20.225 9.4199 1.6182 15.283 13.292 13.089 26.072z" fill="none" stroke="#000" stroke-width="14.713"/><path d="m-458.12 1370.7c0.3825 31.315-39.35 41.012-87.368 40.546-48.02-0.4655-86.837-10.927-86.533-42.249 0.3073-31.318 23.397-63.69 70.966-70.27 50.386-6.9693 102.45 31.092 102.94 71.972" stroke-width="1.2966"/><path d="m-458.12 1370.7c0.3825 31.315-39.35 41.012-87.368 40.546-48.02-0.4655-86.837-10.927-86.533-42.249 0.3073-31.318 23.397-63.69 70.966-70.27 50.386-6.9693 102.45 31.092 102.94 71.972z" fill="none" stroke="#000" stroke-linecap="round" stroke-linejoin="round" stroke-width="14.713"/><path d="m-220.07 1232.1c17.226 26.154-8.7288 57.537-48.834 83.945-40.107 26.408-79.179 37.859-96.403 11.703-17.227-26.157-6.0798-80.014 34.021-106.43 40.115-26.406 93.986-15.378 111.22 10.779" fill="#fff" stroke-width="1.2966"/><path d="m-220.07 1232.1c17.226 26.154-8.7288 57.537-48.834 83.945-40.107 26.408-79.179 37.859-96.403 11.703-17.227-26.157-6.0798-80.014 34.021-106.43 40.115-26.406 93.986-15.378 111.22 10.779z" fill="none" stroke="#000" stroke-linecap="round" stroke-linejoin="round" stroke-width="5.5612"/><path d="m-306.63 1170.4c0 100.16-84.963 181.34-189.78 181.34-104.81 0-189.77-81.184-189.77-181.34 0-100.15 84.961-181.34 189.77-181.34 104.82 0 189.78 81.19 189.78 181.34" fill="#fff" stroke-width="1.2966"/><path d="m-306.63 1170.4c0 100.16-84.963 181.34-189.78 181.34-104.81 0-189.77-81.184-189.77-181.34 0-100.15 84.961-181.34 189.77-181.34 104.82 0 189.78 81.19 189.78 181.34z" fill="none" stroke="#000" stroke-width="5.5171"/><path d="m-326.33 933.59c10.927-10.294 29.326 4.3476 40.045 13.05 8.2452 6.6957 24.997 7.8549 24.531 18.505-1.2149 27.802-34.87 100.35-74.314 131.85-13.233 10.574-76.758-96.24-73.095-98.468 18.376-11.155 48.956-33.036 82.834-64.938" fill="#fff" stroke-width="1.2966"/><path d="m-326.33 933.59c10.927-10.294 29.326 4.3476 40.045 13.05 8.2452 6.6957 24.997 7.8549 24.531 18.505-1.2149 27.802-34.87 100.35-74.314 131.85-13.233 10.574-76.758-96.24-73.095-98.468 18.376-11.155 48.956-33.036 82.834-64.938z" fill="none" stroke="#000" stroke-linecap="round" stroke-linejoin="round" stroke-width="5.5612"/><path d="m-564.36 1024.5c3.1949-8.441-33.327-33.656-60.748-26.938-46.908 11.479-75.773 53.928-70.498 93.617 3.7991 28.677 27.203 71.679 88.934 78.008 15.249 1.5572 19.648-23.368 24.783-34.826 6.911-15.445 19.208-29.856 5.1566-41.365-10.228-8.367-12.389-16.752-10.683-24.497" fill="#fff" stroke-width="1.2966"/><path d="m-564.36 1024.5c3.1949-8.441-33.327-33.656-60.748-26.938-46.908 11.479-75.773 53.928-70.498 93.617 3.7991 28.677 27.203 71.679 88.934 78.008 15.249 1.5572 19.648-23.368 24.783-34.826 6.911-15.445 19.208-29.856 5.1566-41.365-10.228-8.367-12.389-16.752-10.683-24.497" fill="none" stroke="#000" stroke-linecap="round" stroke-linejoin="round" stroke-width="5.5612"/><path d="m-363.7 902.54c0 63.008-58.698 114.08-131.11 114.08-72.413 0-131.12-51.076-131.12-114.08 0-63.009 58.704-114.08 131.12-114.08 72.411 0 131.11 51.075 131.11 114.08" fill="#fff" stroke-width="1.2966"/><path d="m-363.7 902.54c0 63.008-58.698 114.08-131.11 114.08-72.413 0-131.12-51.076-131.12-114.08 0-63.009 58.704-114.08 131.12-114.08 72.411 0 131.11 51.075 131.11 114.08z" fill="none" stroke="#000" stroke-linecap="round" stroke-linejoin="round" stroke-width="5.5612"/><path d="m-598.31 968.95c-9.3175-5.5767-17.831-13.551-26.489-2.8733-8.2374 10.164-4.4214 22.284 2.824 31.78 14.254 18.676 41.831 36.938 81.207 50.004 11.773 3.9093 48.41 11.151 75.659 9.6338 24.282-1.3511 96.708-6.6516 93.875-66.643-0.49531-10.637-4.2685-23.942-18.202-21.939-10.962 1.5741-20.602 10.797-30.862 14.582-24.26 8.9531-26.421 13.5-52.32 16.488-19.74 2.2626-56.059 0-83.225-9.4018-14.193-4.9142-29.668-13.967-42.468-21.63" fill="#fff" stroke-width="1.2966"/><path d="m-598.31 968.95c-9.3175-5.5767-17.831-13.551-26.489-2.8733-8.2374 10.164-4.4214 22.284 2.824 31.78 14.254 18.676 41.831 36.938 81.207 50.004 11.773 3.9093 48.41 11.151 75.659 9.6338 24.282-1.3511 96.708-6.6516 93.875-66.643-0.49531-10.637-4.2685-23.942-18.202-21.939-10.962 1.5741-20.602 10.797-30.862 14.582-24.26 8.9531-26.421 13.5-52.32 16.488-19.74 2.2626-56.059 0-83.225-9.4018-14.193-4.9142-29.668-13.967-42.468-21.63z" fill="none" stroke="#000" stroke-linecap="round" stroke-linejoin="round" stroke-width="5.5612"/><path d="m-462.95 991.07c-5.84 11.487-0.4603 8.0196 8.7275 13.616 18.346 11.176 19.108 44.479 38.612 66.605 7.593 8.6212 40.278 43.714 26 90.457 47.583-1.3342 83.149-28.576 87.69-34.64 1.5585-2.0746 3.7783-39.35-39.123-78.115-25.227-22.785-32.772-30.862-42.066-46.543-5.1152-8.6264-10.101-21.983-19.266-27.648-9.0024-5.5391-20.632-2.8305-30.474 6.2497-1.2448 1.1488-23.454-3.0315-30.1 10.019" fill="#fff" stroke-width="1.2966"/><path d="m-462.95 991.07c-5.84 11.487-0.4603 8.0196 8.7275 13.616 18.346 11.176 19.108 44.479 38.612 66.605 7.593 8.6212 40.278 43.714 26 90.457 47.583-1.3342 83.149-28.576 87.69-34.64 1.5585-2.0746 3.7783-39.35-39.123-78.115-25.227-22.785-32.772-30.862-42.066-46.543-5.1152-8.6264-10.101-21.983-19.266-27.648-9.0024-5.5391-20.632-2.8305-30.474 6.2497-1.2448 1.1488-23.454-3.0315-30.1 10.019z" fill="#fff" stroke="#000" stroke-linecap="round" stroke-linejoin="round" stroke-width="5.5612"/><path d="m-321.36 882.46c-0.47327-7.6578-2.5128-21.176 1.4431-27.91 12.571-21.303 29.891-8.0014 34.64 6.5674 1.0269 3.1469 2.1213 6.3638 3.2208 9.512 5.8879-16.358 24.912-32.471 42.121-32.564 19.836-0.1167 36.121 14.496 41.022 32.09 5.3213 19.086-3.0341 39.129-16.467 56.312-8.8053 11.281-25.244 27.046-36.908 34.547 2.6062 6.264 0.98283 15.632-4.6134 19.785-6.2432 4.6393-17.825 3.3323-27.543-0.87003-50.25-21.686-56.268-39.308-56.248-48.727 0.0143-5.8477 4.7184-10.86 9.8283-13.083 3.9936-1.7297 8.6186-1.5378 9.9697-1.4146 1.1138 0.0921-0.0246-27.29-0.46548-34.245" fill="#fff" stroke-width="1.2966"/><g transform="translate(-865.35,485.16)" fill="#fff" stroke="#000" stroke-linecap="round" stroke-linejoin="round" stroke-width="5.5612"><path d="m543.99 397.3c-0.47327-7.6578-2.5128-21.176 1.4431-27.91 12.571-21.303 29.891-8.0014 34.64 6.5674 1.0269 3.1469 2.1213 6.3638 3.2208 9.512 5.8879-16.358 24.912-32.471 42.121-32.564 19.836-0.1167 36.121 14.496 41.022 32.09 5.3213 19.086-3.0341 39.129-16.467 56.312-8.8053 11.281-25.244 27.046-36.908 34.547 2.6062 6.264 0.98283 15.632-4.6134 19.785-6.2432 4.6393-17.825 3.3323-27.543-0.87003-50.25-21.686-56.268-39.308-56.248-48.727 0.0143-5.8477 4.7184-10.86 9.8283-13.083 3.9936-1.7297 8.6186-1.5378 9.9697-1.4146 1.1138 0.0921-0.0246-27.29-0.46548-34.245z"/><path d="m582.77 385.03c2.5569 9.1878 2.5854 12.126 4.8934 14.583"/><path d="m565.4 454.69c10.941 9.3849 27.447 19.255 48.585 21.121"/></g><g fill="#fff"><path d="m-521.37 1087.4c7.3907-1.3083 21.967-2.2548 28.153 1.8762 19.366 12.931 13.756 22.535 1.744 27.706-3.06 1.3135-5.2435-0.5459-7.982 1.5806 17.244 2.8033 35.711 17.084 39.439 34.482 4.2944 20.059-6.0124 41.298-21.559 51.983-16.851 11.581-37.489 9.6261-56.526 1.5948-12.486-5.2668-30.811-16.783-40.358-26.177-5.3524 4.6756-14.203 1.3122-19.309-3.0017-5.6844-4.8286-8.17-19.256-7.0199-30.509 5.3589-52.226 26.546-57.93 35.424-60.962 5.508-1.8736 11.226 1.2486 14.395 5.7103 2.4856 3.4775 3.5787 3.4775 3.7498 4.8779 0.14393 1.1644 19.454-7.3051 29.849-9.1606" stroke-width="1.2966"/><path d="m-521.37 1087.4c7.3907-1.3083 21.967-2.2548 28.153 1.8762 19.366 12.931 13.756 22.535 1.744 27.706-3.06 1.3135-5.2435-0.5459-7.982 1.5806 17.244 2.8033 35.711 17.084 39.439 34.482 4.2944 20.059-6.0124 41.298-21.559 51.983-16.851 11.581-37.489 9.6261-56.526 1.5948-12.486-5.2668-30.811-16.783-40.358-26.177-5.3524 4.6756-14.203 1.3122-19.309-3.0017-5.6844-4.8286-8.17-19.256-7.0199-30.509 5.3589-52.226 26.546-57.93 35.424-60.962 5.508-1.8736 11.226 1.2486 14.395 5.7103 2.4856 3.4775 3.5787 3.4775 3.7498 4.8779 0.14393 1.1644 19.454-7.3051 29.849-9.1606z" stroke="#000" stroke-linecap="round" stroke-linejoin="round" stroke-width="5.5612"/><path d="m-568.6 1125.3c-6.5168 14.128-12.322 34.057-9.6131 56.076" stroke="#000" stroke-linecap="round" stroke-linejoin="round" stroke-width="5.5612"/><path d="m-425.61 767.78c6.4027 14.754-35.945 49.54-95.586 75.399-59.63 25.864-113.98 32.99-120.37 18.234-6.4001-14.757 36.753-47.68 96.392-73.532 59.64-25.854 113.17-34.857 119.56-20.101" stroke-width="1.2966"/></g><path d="m-425.61 767.78c6.4027 14.754-35.945 49.54-95.586 75.399-59.63 25.864-113.98 32.99-120.37 18.234-6.4001-14.757 36.753-47.68 96.392-73.532 59.64-25.854 113.17-34.857 119.56-20.101z" fill="#fff" stroke="#000" stroke-linecap="round" stroke-linejoin="round" stroke-width="5.5612"/><path d="m-481.79 683.03-183.26 79.451 63.62 72.671 0.29433-0.1154c4.7495 4.4759 30.094 4.2529 71.53-13.708 41.428-17.959 59.053-33.77 56.535-42.873l0.28655-0.12058z" fill="#fff" stroke-width="1.2966"/><path transform="matrix(1.2966 0 0 1.2966 -804.15 654.55)" d="m201.65 100.8c-31.457 13.636-61.021 17.853-69.072 14.124l13.376 23.835c3.927 6.487 33.38 10.807 65.99-3.336 32.611-14.134 56.214-41.459 54.17-48.762l-7.996-25.224c-4.431 8.675-26.389 26.321-56.468 39.363" clip-path="url(#XMLID_18_)" fill="#fff"/><path d="m-481.79 683.03-183.26 79.451 63.62 72.671 0.29433-0.1154c4.7495 4.4759 30.094 4.2529 71.53-13.708 41.428-17.959 59.053-33.77 56.535-42.873l0.28655-0.12058z" fill="none" stroke="#000" stroke-linecap="round" stroke-linejoin="round" stroke-width="5.5612"/><path d="m-481.94 682.53c4.2607 9.8348-36.435 36.952-83.956 57.555-47.527 20.612-95.135 31.78-99.401 21.941-4.2594-9.8309 36.436-36.948 83.955-57.55 47.521-20.61 95.134-31.781 99.402-21.946" fill="#fff" stroke-width="1.2966"/><path d="m-481.94 682.53c4.2607 9.8348-36.435 36.952-83.956 57.555-47.527 20.612-95.135 31.78-99.401 21.941-4.2594-9.8309 36.436-36.948 83.955-57.55 47.521-20.61 95.134-31.781 99.402-21.946z" fill="none" stroke="#000" stroke-linecap="round" stroke-linejoin="round" stroke-width="5.5612"/><path d="m-448.76 916.29c-2.1615 11.83-19.03 18.654-37.658 15.251-18.628-3.4127-31.973-15.769-29.804-27.608 2.1602-11.832 19.021-18.654 37.649-15.252 18.634 3.4205 31.981 15.777 29.813 27.609" fill="#fff" stroke-width="1.2966"/><path d="m-448.76 916.29c-2.1615 11.83-19.03 18.654-37.658 15.251-18.628-3.4127-31.973-15.769-29.804-27.608 2.1602-11.832 19.021-18.654 37.649-15.252 18.634 3.4205 31.981 15.777 29.813 27.609z" fill="none" stroke="#000" stroke-linecap="round" stroke-linejoin="round" stroke-width="5.5612"/><path d="m-458.12 1370.7c0.38121 31.315-39.352 41.012-87.367 40.546-48.024-0.4655-86.838-10.927-86.536-42.249 0.3086-31.318 23.399-63.69 70.968-70.27 50.385-6.9693 102.45 31.092 102.94 71.972" fill="#fff" stroke-width="1.2966"/><path d="m-458.12 1370.7c0.38121 31.315-39.352 41.012-87.367 40.546-48.024-0.4655-86.838-10.927-86.536-42.249 0.3086-31.318 23.399-63.69 70.968-70.27 50.385-6.9693 102.45 31.092 102.94 71.972z" fill="none" stroke="#000" stroke-linecap="round" stroke-linejoin="round" stroke-width="5.5612"/><path d="m-294.18 760.69-3.9534-4.5511 4.5835-0.0195c1.906-9e-3 3.4438-1.5624 3.4386-3.4697-0.0104-1.9047-1.5598-3.4451-3.4658-3.436l-14.102-6.9512 7.3025-0.0311c3.038-0.013 5.4886-2.4856 5.4782-5.5236-0.0117-3.0393-2.4843-5.4925-5.521-5.4782l-12.507 0.0519c-0.46289 4e-3 -0.91281 0.0635-1.3407 0.17504 0.93615-1.7919 1.6999-3.7096 2.2561-5.7401 0.38769-1.4094 0.66257-2.8253 0.83113-4.2348l9.1632 6.7061c2.4506 1.7932 5.8905 1.2603 7.6863-1.1955 1.7932-2.4506 1.259-5.8944-1.1916-7.6863l-6.7826-4.966 16.291 2.8992c1.5365 1.1255 3.6966 0.78964 4.8221-0.74815 1.1255-1.5404 0.78964-3.7005-0.74555-4.8273l-4.2594-3.1145 6.3119-1.4678c1.7634-0.40844 2.8629-2.1705 2.4558-3.9352-0.40714-1.766-2.1705-2.8629-3.9352-2.4545l-5.8698 1.364 2.1329-4.0636c0.88559-1.6869 0.23728-3.7744-1.4509-4.6626-1.6882-0.88559-3.7732-0.23599-4.66 1.4548l-12.751 9.2086 3.3984-6.4701c1.4133-2.6892 0.37861-6.015-2.3093-7.427-2.6879-1.4133-6.0124-0.37602-7.4257 2.3119l-5.2772 10.054c-1.8373-2.8513-4.1764-5.3861-6.9356-7.4555l9.805-4.6613c2.7423-1.3031 3.9145-4.5861 2.6088-7.3311-1.3018-2.7436-4.5809-3.9119-7.3246-2.6075l-7.593 3.6098 10.304-12.96c1.7219-0.81817 2.4558-2.8785 1.6389-4.6017-0.81945-1.7219-2.8772-2.4532-4.5978-1.635l-4.7677 2.2652 1.7167-6.2523c0.47975-1.7465-0.54717-3.5514-2.2937-4.0325-1.7465-0.47845-3.5501 0.54846-4.0299 2.2963l-1.5961 5.8166-2.5556-3.8082c-1.0619-1.5819-3.2078-2.0046-4.7897-0.94264-1.5819 1.0658-2.0033 3.2104-0.94135 4.7936l2.0279 15.598-4.0727-6.0656c-1.6921-2.5219-5.1074-3.1923-7.6293-1.4989s-3.1936 5.1138-1.5015 7.6345l5.862 8.7366c-3.3193 0.28526-6.5298 1.1462-9.5055 2.5051l0.50179-11.248c0.13485-3.0367-2.2146-5.6066-5.25-5.7414-3.0341-0.13355-5.6027 2.2185-5.7362 5.2539l-0.37601 8.4021-6.6076-15.177c0.0817-1.9047-1.3913-3.5177-3.2947-3.602-1.9047-0.083-3.5177 1.3926-3.602 3.2973l-0.23598 5.2746-4.7132-4.4448c-1.3174-1.2434-3.3919-1.1799-4.6354 0.13874-1.2422 1.3187-1.1799 3.3945 0.13615 4.6367l4.3864 4.1362-4.5615 0.47456c-1.8957 0.19709-3.2714 1.897-3.0756 3.7926 0.19709 1.8982 1.8957 3.2752 3.79 3.0769l14.723 5.5132-7.2662 0.75723c-3.0198 0.31507-5.2137 3.0198-4.9025 6.0435 0.31507 3.0224 3.0172 5.2176 6.0383 4.8999l10.359-1.0801c-0.60033 1.3368-1.1034 2.7346-1.5028 4.1906-0.44215 1.6104-0.73778 3.2273-0.89726 4.8364-0.14781-0.10114-0.30082-0.19579-0.46289-0.28396l-10.986-5.9774c-2.6658-1.4522-6.0059-0.46418-7.4594 2.2056-1.4496 2.671-0.46418 6.0098 2.2017 7.4607l7.3842 4.0195-16.531-0.70665c-1.6752-0.91022-3.7706-0.29044-4.6834 1.3848-0.90893 1.6752-0.29044 3.7732 1.3835 4.6834l4.6328 2.5219-6.0604 2.2924c-1.6947 0.64053-2.5492 2.5336-1.9099 4.2283 0.63923 1.6934 2.5336 2.5491 4.2244 1.9086l5.6416-2.1342-1.5754 4.31c-0.6535 1.7919 0.2671 3.7744 2.0577 4.4292 1.7919 0.6535 3.7718-0.2671 4.4253-2.059l11.412-10.828-2.5076 6.8682c-1.0425 2.8512 0.42529 6.0111 3.2765 7.0536 2.8538 1.0425 6.0111-0.42788 7.0523-3.2817l3.3232-9.1048c2.0072 2.9589 4.5654 5.556 7.58 7.6137l-9.9774 4.6497c-2.7514 1.2811-3.9456 4.555-2.6646 7.3116 1.2811 2.7514 4.5511 3.9456 7.3051 2.6632l7.6228-3.5514-10.404 12.878c-1.7271 0.80779-2.4765 2.8603-1.6739 4.59 0.8052 1.7284 2.8577 2.4778 4.5874 1.6726l4.7819-2.2302-1.7647 6.2406c-0.49401 1.7426 0.51864 3.554 2.2626 4.0467 1.7426 0.49271 3.5514-0.52124 4.0454-2.2613l1.6428-5.8075 2.5258 3.8276c1.0516 1.591 3.191 2.0292 4.7819 0.97765 1.591-1.0516 2.0279-3.1936 0.97635-4.7858l-1.9073-15.615 4.0247 6.0993c1.6726 2.5349 5.084 3.2325 7.6176 1.5585 2.5349-1.6765 3.2325-5.0892 1.5585-7.6228l-6.4312-9.7467c3.7744-0.35138 7.4089-1.4483 10.706-3.178l-1.6973 11.71c-0.43696 3.0082 1.6467 5.7972 4.6522 6.2315 3.0043 0.43566 5.7959-1.6493 6.2302-4.6561l1.2097-8.3243 5.0659 15.759c-0.27229 1.8866 1.036 3.6396 2.92 3.9132 1.8866 0.27229 3.6396-1.0373 3.9132-2.9226l0.75592-5.228 4.2503 4.8947c1.1877 1.3666 3.2584 1.5118 4.6237 0.32286 1.3718-1.189 1.517-3.2597 0.33064-4.6276z" fill="#fff" stroke="#000" stroke-linecap="round" stroke-linejoin="round" stroke-width="4.2646"/><path d="m-705.4 1003.8c-1.1255 0-2.1913 0.2632-3.1365 0.73l-3.2791-2.1757 23.203-10.261-24.96-10.666 4.9751-2.4052c0.90244 0.41491 1.906 0.64701 2.9641 0.64701 3.9326 0 7.121-3.1974 7.121-7.1444 0-3.9456-3.1884-7.1444-7.121-7.1444-3.9339 0-7.1236 3.1988-7.1236 7.1444 0 0.0545 4e-3 0.10503 5e-3 0.15689l-3.4062 1.8101 0.0597-0.63664 2.2794-26.539-20.778 16.007-0.0674-4.1894c1.8114-1.294 2.9926-3.4179 2.9926-5.8192 0-3.9456-3.1871-7.1443-7.1223-7.1443-3.9326 0-7.1223 3.1988-7.1223 7.1443 0 2.5453 1.3277 4.778 3.3245 6.0435v3.5566l-0.16078-0.0882-0.0117-0.0246-23.619-13.796 3.9573 18.688c3e-3 0.29434 0.0337 0.59126 0.10113 0.89078l1.2681 5.5754 0.0947 0.44733 9e-3 4e-3 0.0259 0.1141-3.7057-1.967c-0.35138-3.615-3.3906-6.4416-7.0873-6.4416-3.9339 0-7.1223 3.1988-7.1223 7.1456 0 3.9469 3.1884 7.143 7.1223 7.143 1.2629 0 2.4467-0.32934 3.4762-0.90633l3.86 2.0486-24.573 10.481 23.203 10.739-3.7265 2.448c-0.77019-0.2878-1.6026-0.4447-2.4726-0.4447-3.9326 0-7.1223 3.2013-7.1223 7.1469 0 3.9469 3.1897 7.1456 7.1223 7.1456 3.9339 0 7.1223-3.1988 7.1223-7.1456 0-0.1543-6e-3 -0.306-0.0156-0.459l4.1297-2.7631-0.63275 25.782 19.173-16.601 0.0195 5.5884c-1.9786 1.2694-3.2921 3.4918-3.2921 6.0228 0 3.9456 3.1897 7.1456 7.1223 7.1456 3.9352 0 7.1236-3.2 7.1236-7.1456 0-2.4947-1.2746-4.6886-3.2052-5.967l-0.0596-5.5456 20.226 15.414-2.2237-25.59 3.9456 2.8681c0 0.026-1e-3 0.053-1e-3 0.079 0 3.9482 3.1884 7.1469 7.1223 7.1469s7.1223-3.1987 7.1223-7.1469c0-3.9469-3.1884-7.1456-7.1223-7.1456m-69.331-11.374s16.275-7.2066 16.131-6.8358c-2.741 6.9486 0.27488 13.404 0.27488 13.404zm30.994-22.284c-7.3168 1.4068-11.131 7.4192-11.131 7.4192l-3.2688-17.415s14.79 9.9204 14.4 9.9956m-12.711 52.794s1.7971-17.758 2.0461-17.447c4.6691 5.8218 11.751 6.3832 11.751 6.3832zm22.994-10.903c7.4011-0.848 11.655-6.5583 11.655-6.5583l1.954 17.612s-14.003-11.01-13.609-11.054m11.351-36.081c-4.555-5.9139-11.627-6.614-11.627-6.614l14.011-10.79c0 1e-3 -2.1433 17.72-2.3845 17.404m4.2425 22.504c2.9589-6.8591 0.15041-13.407 0.15041-13.407l16.19 7.0886s-16.498 6.684-16.34 6.3184" fill="#fff" stroke-width="1.2966"/><path d="m-705.4 1003.8c-1.1255 0-2.1913 0.2632-3.1365 0.73l-3.2791-2.1757 23.203-10.261-24.96-10.666 4.9751-2.4052c0.90244 0.41491 1.906 0.64701 2.9641 0.64701 3.9326 0 7.121-3.1974 7.121-7.1444 0-3.9456-3.1884-7.1444-7.121-7.1444-3.9339 0-7.1236 3.1988-7.1236 7.1444 0 0.0545 4e-3 0.10503 5e-3 0.15689l-3.4062 1.8101 0.0597-0.63664 2.2794-26.539-20.778 16.007-0.0674-4.1894c1.8114-1.294 2.9926-3.4179 2.9926-5.8192 0-3.9456-3.1871-7.1443-7.1223-7.1443-3.9326 0-7.1223 3.1988-7.1223 7.1443 0 2.5453 1.3277 4.778 3.3245 6.0435v3.5566l-0.16078-0.0882-0.0117-0.0246-23.619-13.796 3.9573 18.688c3e-3 0.29434 0.0337 0.59126 0.10113 0.89078l1.2681 5.5754 0.0947 0.44733 9e-3 4e-3 0.0259 0.1141-3.7057-1.967c-0.35138-3.615-3.3906-6.4416-7.0873-6.4416-3.9339 0-7.1223 3.1988-7.1223 7.1456 0 3.9469 3.1884 7.143 7.1223 7.143 1.2629 0 2.4467-0.32934 3.4762-0.90633l3.86 2.0486-24.573 10.481 23.203 10.739-3.7265 2.448c-0.77019-0.2878-1.6026-0.4447-2.4726-0.4447-3.9326 0-7.1223 3.2013-7.1223 7.1469 0 3.9469 3.1897 7.1456 7.1223 7.1456 3.9339 0 7.1223-3.1988 7.1223-7.1456 0-0.1543-6e-3 -0.306-0.0156-0.459l4.1297-2.7631-0.63275 25.782 19.173-16.601 0.0195 5.5884c-1.9786 1.2694-3.2921 3.4918-3.2921 6.0228 0 3.9456 3.1897 7.1456 7.1223 7.1456 3.9352 0 7.1236-3.2 7.1236-7.1456 0-2.4947-1.2746-4.6886-3.2052-5.967l-0.0596-5.5456 20.226 15.414-2.2237-25.59 3.9456 2.8681c0 0.026-1e-3 0.053-1e-3 0.079 0 3.9482 3.1884 7.1469 7.1223 7.1469s7.1223-3.1987 7.1223-7.1469c0-3.9469-3.1884-7.1456-7.1223-7.1456zm-69.331-11.374s16.275-7.2066 16.131-6.8358c-2.741 6.9486 0.27488 13.404 0.27488 13.404zm30.994-22.284c-7.3168 1.4068-11.131 7.4192-11.131 7.4192l-3.2688-17.415s14.79 9.9204 14.4 9.9956zm-12.711 52.794s1.7971-17.758 2.0461-17.447c4.6691 5.8218 11.751 6.3832 11.751 6.3832zm22.994-10.903c7.4011-0.848 11.655-6.5583 11.655-6.5583l1.954 17.612s-14.003-11.01-13.609-11.054zm11.351-36.081c-4.555-5.9139-11.627-6.614-11.627-6.614l14.011-10.79c0 1e-3 -2.1433 17.72-2.3845 17.404zm4.2425 22.504c2.9589-6.8591 0.15041-13.407 0.15041-13.407l16.19 7.0886s-16.498 6.684-16.34 6.3184z" fill="none" stroke="#000" stroke-linecap="round" stroke-linejoin="round" stroke-width="3.1741"/><path d="m-179.32 1135.9-4.3242-5.4873 8.4047 0.376c3.038 0.1361 5.6092-2.212 5.7427-5.2487 0.13485-3.0341-2.2185-5.6053-5.2552-5.7414l-12.507-0.5601c-0.35138-0.016-0.69369 0-1.0295 0.054 0.94004-1.6545 1.7284-3.4257 2.343-5.3032 0.47197-1.4444 0.82334-2.8992 1.0593-4.354l8.1453 6.697c2.3482 1.9307 5.8166 1.5935 7.7486-0.7521 1.9281-2.3456 1.5922-5.8101-0.75592-7.7421l-5.6481-4.6432 6.5155-1.1229 9.9424 6.3314 10.42-16.346-16.363-10.421-6.5466 10.27-6.4584 1.1138 4.3281-7.2105c1.5611-2.6049 0.71703-5.9812-1.8905-7.5462-2.6075-1.5624-5.9878-0.7197-7.5515 1.8853l-5.8361 9.7245c-1.7284-2.7903-3.9326-5.2967-6.5479-7.3789l10.357-4.319c2.8059-1.167 4.1297-4.389 2.9576-7.1936-1.1708-2.8033-4.3955-4.1271-7.2001-2.9589l-7.7628 3.2351 2.1446-6.5622 10.907-6.0772-9.4523-16.934-16.94 9.4368 5.626 10.077-2.0033 6.1265-3.7822-6.2575c-1.5715-2.5997-4.9557-3.4347-7.5567-1.8658-2.6023 1.5715-3.4373 4.9518-1.8645 7.5528l5.7207 9.4614c-3.4853 0.1024-6.8876 0.8415-10.051 2.1368l1.014-11.046c0.27747-3.0237-1.9527-5.7012-4.9803-5.98-3.0276-0.2827-5.7051 1.9462-5.9826 4.9699l-0.76888 8.3735-3.8419-3.9754 0.1919-12.377-19.396-0.3073-0.29951 19.382 11.622 0.1854 3.7018 3.8315-7.3012 0.4097c-3.0354 0.1712-5.355 2.7683-5.1839 5.8011 0.17374 3.0315 2.7735 5.3537 5.8075 5.1839l10.506-0.5913c-0.60551 1.2266-1.1358 2.5128-1.5741 3.8509-0.65219 1.9981-1.0736 4.0182-1.2785 6.028-0.26321-0.2697-0.55884-0.5134-0.88429-0.73l-10.42-6.9382c-2.531-1.683-5.9476-0.9997-7.6332 1.5287-1.6843 2.5284-0.99839 5.9424 1.5326 7.628l7.0056 4.6613-7.2299 2.0136-10.64-5.2254-8.5512 17.395 17.414 8.5551 5.342-10.87 5.7816-1.6078-3.108 6.6127c-1.294 2.7488-0.11151 6.0241 2.6386 7.3194 2.7527 1.2927 6.0293 0.1141 7.3246-2.636l4.9984-10.631c1.8632 3.3025 4.3748 6.2471 7.4322 8.6186l-10.709 4.5459c-2.7981 1.1864-4.0999 4.415-2.9109 7.2118 1.189 2.7955 4.4215 4.1012 7.2183 2.9135l7.7447-3.2869-2.2509 7.0354-10.798 4.9453 8.0922 17.624 17.63-8.0766-5.0529-11.013 2.1226-6.6413 3.8211 6.2302c1.5896 2.5906 4.9777 3.4036 7.5696 1.8178 2.5919-1.5871 3.4049-4.9725 1.814-7.5632l-5.9398-9.6844c3.93-0.087 7.7602-0.9828 11.265-2.5738l-2.1887 11.234c-0.58218 2.9835 1.3666 5.8698 4.3501 6.452 2.9848 0.5834 5.8724-1.3628 6.4558-4.3437l1.3964-7.1729 3.0834 3.9158-3.1715 11.252 18.67 5.2668 5.263-18.654z" fill="#fff" stroke-width="1.2966"/><path d="m-179.32 1135.9-4.3242-5.4873 8.4047 0.376c3.038 0.1361 5.6092-2.212 5.7427-5.2487 0.13485-3.0341-2.2185-5.6053-5.2552-5.7414l-12.507-0.5601c-0.35138-0.016-0.69369 0-1.0295 0.054 0.94004-1.6545 1.7284-3.4257 2.343-5.3032 0.47197-1.4444 0.82334-2.8992 1.0593-4.354l8.1453 6.697c2.3482 1.9307 5.8166 1.5935 7.7486-0.7521 1.9281-2.3456 1.5922-5.8101-0.75592-7.7421l-5.6481-4.6432 6.5155-1.1229 9.9424 6.3314 10.42-16.346-16.363-10.421-6.5466 10.27-6.4584 1.1138 4.3281-7.2105c1.5611-2.6049 0.71703-5.9812-1.8905-7.5462-2.6075-1.5624-5.9878-0.7197-7.5515 1.8853l-5.8361 9.7245c-1.7284-2.7903-3.9326-5.2967-6.5479-7.3789l10.357-4.319c2.8059-1.167 4.1297-4.389 2.9576-7.1936-1.1708-2.8033-4.3955-4.1271-7.2001-2.9589l-7.7628 3.2351 2.1446-6.5622 10.907-6.0772-9.4523-16.934-16.94 9.4368 5.626 10.077-2.0033 6.1265-3.7822-6.2575c-1.5715-2.5997-4.9557-3.4347-7.5567-1.8658-2.6023 1.5715-3.4373 4.9518-1.8645 7.5528l5.7207 9.4614c-3.4853 0.1024-6.8876 0.8415-10.051 2.1368l1.014-11.046c0.27747-3.0237-1.9527-5.7012-4.9803-5.98-3.0276-0.2827-5.7051 1.9462-5.9826 4.9699l-0.76888 8.3735-3.8419-3.9754 0.1919-12.377-19.396-0.3073-0.29951 19.382 11.622 0.1854 3.7018 3.8315-7.3012 0.4097c-3.0354 0.1712-5.355 2.7683-5.1839 5.8011 0.17374 3.0315 2.7735 5.3537 5.8075 5.1839l10.506-0.5913c-0.60551 1.2266-1.1358 2.5128-1.5741 3.8509-0.65219 1.9981-1.0736 4.0182-1.2785 6.028-0.26321-0.2697-0.55884-0.5134-0.88429-0.73l-10.42-6.9382c-2.531-1.683-5.9476-0.9997-7.6332 1.5287-1.6843 2.5284-0.99839 5.9424 1.5326 7.628l7.0056 4.6613-7.2299 2.0136-10.64-5.2254-8.5512 17.395 17.414 8.5551 5.342-10.87 5.7816-1.6078-3.108 6.6127c-1.294 2.7488-0.11151 6.0241 2.6386 7.3194 2.7527 1.2927 6.0293 0.1141 7.3246-2.636l4.9984-10.631c1.8632 3.3025 4.3748 6.2471 7.4322 8.6186l-10.709 4.5459c-2.7981 1.1864-4.0999 4.415-2.9109 7.2118 1.189 2.7955 4.4215 4.1012 7.2183 2.9135l7.7447-3.2869-2.2509 7.0354-10.798 4.9453 8.0922 17.624 17.63-8.0766-5.0529-11.013 2.1226-6.6413 3.8211 6.2302c1.5896 2.5906 4.9777 3.4036 7.5696 1.8178 2.5919-1.5871 3.4049-4.9725 1.814-7.5632l-5.9398-9.6844c3.93-0.087 7.7602-0.9828 11.265-2.5738l-2.1887 11.234c-0.58218 2.9835 1.3666 5.8698 4.3501 6.452 2.9848 0.5834 5.8724-1.3628 6.4558-4.3437l1.3964-7.1729 3.0834 3.9158-3.1715 11.252 18.67 5.2668 5.263-18.654z" fill="none" stroke="#000" stroke-linecap="round" stroke-linejoin="round" stroke-width="4.2646"/><path d="m-158.95 1360.4c-1.2862 0.5251-2.3754 1.3226-3.2389 2.2976l-4.7586-0.9479 21.677-22.556-33.464-0.4979 4.5524-5.0698c1.2253 0.051 2.4778-0.1543 3.685-0.6496 4.4876-1.8386 6.6296-6.9759 4.7845-11.48-1.8451-4.5017-6.9784-6.6593-11.466-4.8207-4.4902 1.8399-6.6322 6.9796-4.7858 11.48 0.0246 0.062 0.0506 0.1193 0.0778 0.1777l-3.0393 3.6578-0.2282-0.7533-9.8089-31.344-16.219 27.976-2.0383-4.7469c1.46-2.3248 1.8179-5.2993 0.69499-8.039-1.8451-4.5044-6.9784-6.662-11.469-4.8234-4.4876 1.8399-6.6296 6.9797-4.7832 11.484 1.189 2.9005 3.7472 4.8286 6.6179 5.3395l1.661 4.0558-0.22431-0.027-0.0221-0.021-33.398-4.6976 13.253 19.471c0.13874 0.3371 0.31378 0.6599 0.52902 0.9698l4.0545 5.7673 0.31897 0.4668h9e-3l0.083 0.1167-5.1476-0.5122c-2.0888-3.9599-6.8811-5.7622-11.096-4.0338-4.4889 1.8386-6.6309 6.9797-4.7871 11.48 1.8464 4.5057 6.9797 6.6607 11.469 4.8221 1.438-0.5912 2.6373-1.5209 3.5398-2.6606l5.3628 0.5316-23.136 23.448 31.491 1.4029-3.1054 4.5343c-1.0127 0.031-2.0357 0.2438-3.0302 0.6522-4.4876 1.8373-6.6296 6.9784-4.7832 11.48 1.8451 4.5044 6.9784 6.662 11.466 4.8247 4.4902-1.8412 6.6309-6.981 4.7858-11.484-0.0726-0.1751-0.15041-0.3449-0.23339-0.5135l3.4205-5.0827 11.334 29.708 14.111-27.903 2.6347 6.3651c-1.6623 2.3728-2.1239 5.5236-0.94264 8.4098 1.8464 4.5018 6.981 6.662 11.469 4.8234 4.4889-1.8399 6.6309-6.9823 4.7871-11.484-1.167-2.8461-3.6461-4.7508-6.4481-5.3083l-2.6606-6.2977 30.281 8.1298-14.501-28.157 5.8426 1.4263c0.013 0.031 0.0233 0.064 0.035 0.092 1.8464 4.5032 6.9771 6.662 11.467 4.8234 4.4876-1.8399 6.6296-6.9797 4.7832-11.482-1.8399-4.5018-6.9732-6.6607-11.461-4.8208m-84.419 19.439s15.2-15.833 15.207-15.343c0.12318 9.2098 6.5816 15.164 6.5816 15.164zm24.944-39.916c-7.6928 5.027-9.2332 13.67-9.2332 13.67l-11.871-18.341c0 1e-3 21.513 4.4033 21.104 4.6704m10.181 66.177s-6.2523-21.101-5.8244-20.863c8.0494 4.4604 16.396 1.788 16.396 1.788zm21.135-23.19c8.0507-4.4278 10.235-12.931 10.235-12.931l10.461 19.18s-21.124-6.0124-20.697-6.2484m-3.9197-46.471c-7.9599-4.6172-16.356-2.1096-16.356-2.1096l10.941-18.863s5.8374 21.219 5.4147 20.973m15.364 23.69c0.16855-9.2086-6.0967-15.367-6.0967-15.367l21.786 0.516s-15.698 15.343-15.689 14.851" fill="#fff" stroke-width="1.2966"/><path d="m-158.95 1360.4c-1.2862 0.5251-2.3754 1.3226-3.2389 2.2976l-4.7586-0.9479 21.677-22.556-33.464-0.4979 4.5524-5.0698c1.2253 0.051 2.4778-0.1543 3.685-0.6496 4.4876-1.8386 6.6296-6.9759 4.7845-11.48-1.8451-4.5017-6.9784-6.6593-11.466-4.8207-4.4902 1.8399-6.6322 6.9796-4.7858 11.48 0.0246 0.062 0.0506 0.1193 0.0778 0.1777l-3.0393 3.6578-0.2282-0.7533-9.8089-31.344-16.219 27.976-2.0383-4.7469c1.46-2.3248 1.8179-5.2993 0.69499-8.039-1.8451-4.5044-6.9784-6.662-11.469-4.8234-4.4876 1.8399-6.6296 6.9797-4.7832 11.484 1.189 2.9005 3.7472 4.8286 6.6179 5.3395l1.661 4.0558-0.22431-0.027-0.0221-0.021-33.398-4.6976 13.253 19.471c0.13874 0.3371 0.31378 0.6599 0.52902 0.9698l4.0545 5.7673 0.31897 0.4668h9e-3l0.083 0.1167-5.1476-0.5122c-2.0888-3.9599-6.8811-5.7622-11.096-4.0338-4.4889 1.8386-6.6309 6.9797-4.7871 11.48 1.8464 4.5057 6.9797 6.6607 11.469 4.8221 1.438-0.5912 2.6373-1.5209 3.5398-2.6606l5.3628 0.5316-23.136 23.448 31.491 1.4029-3.1054 4.5343c-1.0127 0.031-2.0357 0.2438-3.0302 0.6522-4.4876 1.8373-6.6296 6.9784-4.7832 11.48 1.8451 4.5044 6.9784 6.662 11.466 4.8247 4.4902-1.8412 6.6309-6.981 4.7858-11.484-0.0726-0.1751-0.15041-0.3449-0.23339-0.5135l3.4205-5.0827 11.334 29.708 14.111-27.903 2.6347 6.3651c-1.6623 2.3728-2.1239 5.5236-0.94264 8.4098 1.8464 4.5018 6.981 6.662 11.469 4.8234 4.4889-1.8399 6.6309-6.9823 4.7871-11.484-1.167-2.8461-3.6461-4.7508-6.4481-5.3083l-2.6606-6.2977 30.281 8.1298-14.501-28.157 5.8426 1.4263c0.013 0.031 0.0233 0.064 0.035 0.092 1.8464 4.5032 6.9771 6.662 11.467 4.8234 4.4876-1.8399 6.6296-6.9797 4.7832-11.482-1.8399-4.5018-6.9732-6.6607-11.461-4.8208zm-84.419 19.439s15.2-15.833 15.207-15.343c0.12318 9.2097 6.5816 15.164 6.5816 15.164zm24.944-39.916c-7.6928 5.027-9.2332 13.67-9.2332 13.67l-11.871-18.341c0 1e-3 21.513 4.4033 21.104 4.6704zm10.181 66.177s-6.2523-21.101-5.8244-20.863c8.0494 4.4604 16.396 1.788 16.396 1.788zm21.135-23.19c8.0507-4.4279 10.235-12.931 10.235-12.931l10.461 19.18s-21.124-6.0124-20.697-6.2484zm-3.9197-46.471c-7.9599-4.6172-16.356-2.1096-16.356-2.1096l10.941-18.863s5.8374 21.219 5.4147 20.973zm15.364 23.69c0.16855-9.2086-6.0967-15.367-6.0967-15.367l21.786 0.516c0 1e-3 -15.698 15.343-15.689 14.851z" fill="none" stroke="#000" stroke-linecap="round" stroke-linejoin="round" stroke-width="3.9145"/><path d="m-716.2 744.74-3.7615-4.7249 7.2662 0.28655c2.6256 0.10632 4.8377-1.9371 4.9388-4.5615 0.10113-2.623-1.9423-4.8351-4.5693-4.9388l-10.811-0.42658c-0.30341-0.0117-0.60033 9e-3 -0.89077 0.0519 0.80649-1.4354 1.4794-2.968 2.002-4.5939 0.40194-1.2512 0.69757-2.5115 0.89595-3.768l7.0704 5.7505c2.0383 1.6584 5.0348 1.3524 6.6944-0.68591 1.6558-2.0344 1.3485-5.027-0.68851-6.6866l-4.9038-3.9871 5.6273-1.001 8.6212 5.4263 8.9324-14.176-14.191-8.9337-5.6118 8.9078-5.5767 0.99321 3.7083-6.2523c1.3368-2.2574 0.59255-5.1735-1.6688-6.5142-2.2613-1.3381-5.1787-0.59384-6.5181 1.6636l-4.9998 8.4319c-1.5067-2.4026-3.4244-4.5615-5.6934-6.3469l8.9324-3.7809c2.4208-1.023 3.5488-3.812 2.5245-6.2328-1.0256-2.4156-3.8185-3.5449-6.2367-2.5232l-6.6957 2.8318 1.8256-5.6818 9.3992-5.3019-8.2478-14.592-14.599 8.2348 4.909 8.6847-1.7038 5.3032-3.2986-5.3926c-1.3705-2.238-4.2996-2.9459-6.5388-1.578-2.2431 1.3705-2.9498 4.2944-1.578 6.5362l4.9881 8.1518c-3.0133 0.10632-5.9502 0.75982-8.6782 1.8944l0.82464-9.5522c0.22691-2.614-1.7128-4.9181-4.3294-5.1463-2.6179-0.2282-4.9232 1.7089-5.1489 4.3229l-0.62756 7.239-3.3375-3.4153 0.10892-10.7-16.764-0.18023-0.17375 16.754 10.046 0.10762 3.2182 3.2947-6.3093 0.38899c-2.6218 0.15948-4.6159 2.4156-4.4539 5.0348 0.16337 2.6205 2.4208 4.6147 5.0425 4.4552l9.0776-0.55884c-0.51865 1.0645-0.96987 2.177-1.342 3.3349-0.55625 1.731-0.91022 3.4788-1.0788 5.2176-0.2295-0.23209-0.48493-0.44214-0.76759-0.62885l-9.0387-5.9476c-2.1939-1.4431-5.145-0.83761-6.5881 1.3563-1.4444 2.1913-0.83632 5.1398 1.3589 6.5842l6.0746 3.9975-6.238 1.7725-9.2215-4.4668-7.309 15.074 15.089 7.3142 4.568-9.4186 4.9907-1.4172-2.6581 5.731c-1.1047 2.3819-0.0687 5.2072 2.3158 6.3119 2.3845 1.106 5.2111 0.0713 6.3171-2.3106l4.2736-9.2112c1.6247 2.8461 3.8082 5.3796 6.4636 7.4179l-9.2345 3.9754c-2.4143 1.0386-3.5242 3.8354-2.4843 6.2471 1.0399 2.4104 3.8406 3.5255 6.2523 2.4856l6.6776-2.8759-1.9125 6.0915-9.311 4.3229 7.0756 15.195 15.202-7.0627-4.4202-9.4951 1.8062-5.7505 3.3297 5.368c1.3861 2.2315 4.3177 2.92 6.5505 1.5378 2.2341-1.3835 2.92-4.3138 1.5339-6.5453l-5.1774-8.3437c3.3971-0.0947 6.7035-0.88559 9.7259-2.2769l-1.8399 9.7194c-0.49012 2.5828 1.2071 5.0685 3.7887 5.5573 2.5829 0.48882 5.0711-1.2058 5.5599-3.7835l1.1747-6.2056 2.6827 3.3686-2.6918 9.7415 16.164 4.4655 4.4604-16.147z" fill="#fff" stroke-width="1.2966"/><path d="m-716.2 744.74-3.7615-4.7249 7.2662 0.28655c2.6256 0.10632 4.8377-1.9371 4.9388-4.5615 0.10113-2.623-1.9423-4.8351-4.5693-4.9388l-10.811-0.42658c-0.30341-0.0117-0.60033 9e-3 -0.89077 0.0519 0.80649-1.4354 1.4794-2.968 2.002-4.5939 0.40194-1.2512 0.69757-2.5115 0.89595-3.768l7.0704 5.7505c2.0383 1.6584 5.0348 1.3524 6.6944-0.68591 1.6558-2.0344 1.3485-5.027-0.68851-6.6866l-4.9038-3.9871 5.6273-1.001 8.6212 5.4263 8.9324-14.176-14.191-8.9337-5.6118 8.9078-5.5767 0.99321 3.7083-6.2523c1.3368-2.2574 0.59255-5.1735-1.6688-6.5142-2.2613-1.3381-5.1787-0.59384-6.5181 1.6636l-4.9998 8.4319c-1.5067-2.4026-3.4244-4.5615-5.6934-6.3469l8.9324-3.7809c2.4208-1.023 3.5488-3.812 2.5245-6.2328-1.0256-2.4156-3.8185-3.5449-6.2367-2.5232l-6.6957 2.8318 1.8256-5.6818 9.3992-5.3019-8.2478-14.592-14.599 8.2348 4.909 8.6847-1.7038 5.3032-3.2986-5.3926c-1.3705-2.238-4.2996-2.9459-6.5388-1.578-2.2431 1.3705-2.9498 4.2944-1.578 6.5362l4.9881 8.1518c-3.0133 0.10632-5.9502 0.75982-8.6782 1.8944l0.82464-9.5522c0.22691-2.614-1.7128-4.9181-4.3294-5.1463-2.6179-0.2282-4.9232 1.7089-5.1489 4.3229l-0.62756 7.239-3.3375-3.4153 0.10892-10.7-16.764-0.18023-0.17375 16.754 10.046 0.10762 3.2182 3.2947-6.3093 0.38899c-2.6218 0.15948-4.6159 2.4156-4.4539 5.0348 0.16337 2.6205 2.4208 4.6147 5.0425 4.4552l9.0776-0.55884c-0.51865 1.0645-0.96987 2.177-1.342 3.3349-0.55625 1.731-0.91022 3.4788-1.0788 5.2176-0.2295-0.23209-0.48493-0.44214-0.76759-0.62885l-9.0387-5.9476c-2.1939-1.4431-5.145-0.83761-6.5881 1.3563-1.4444 2.1913-0.83632 5.1398 1.3589 6.5842l6.0746 3.9975-6.238 1.7725-9.2215-4.4668-7.309 15.074 15.089 7.3142 4.568-9.4186 4.9907-1.4172-2.6581 5.731c-1.1047 2.3819-0.0687 5.2072 2.3158 6.3119 2.3845 1.106 5.2111 0.0713 6.3171-2.3106l4.2736-9.2112c1.6247 2.8461 3.8082 5.3796 6.4636 7.4179l-9.2345 3.9754c-2.4143 1.0386-3.5242 3.8354-2.4843 6.2471 1.0399 2.4104 3.8406 3.5255 6.2523 2.4856l6.6776-2.8759-1.9125 6.0915-9.311 4.3229 7.0756 15.195 15.202-7.0627-4.4202-9.4951 1.8062-5.7505 3.3297 5.368c1.3861 2.2315 4.3177 2.92 6.5505 1.5378 2.2341-1.3835 2.92-4.3138 1.5339-6.5453l-5.1774-8.3437c3.3971-0.0947 6.7035-0.88559 9.7259-2.2769l-1.8399 9.7194c-0.49012 2.5828 1.2071 5.0685 3.7887 5.5573 2.5829 0.48882 5.0711-1.2058 5.5599-3.7835l1.1747-6.2056 2.6827 3.3686-2.6918 9.7415 16.164 4.4655 4.4604-16.147z" fill="none" stroke="#000" stroke-linecap="round" stroke-linejoin="round" stroke-width="3.685"/><path d="m-720.66 1211.1-2.356-2.7125 2.732-0.012c1.1358 0 2.0525-0.9323 2.0499-2.0681-6e-3 -1.1358-0.93097-2.0538-2.0668-2.0474l-8.4047-4.1427 4.3527-0.021c1.8101-0.01 3.2714-1.4807 3.2649-3.2908-8e-3 -1.8114-1.4807-3.2727-3.2908-3.2662l-7.4542 0.031c-0.27618 0-0.54458 0.038-0.79872 0.1037 0.55755-1.0671 1.0127-2.2107 1.3446-3.4218 0.2308-0.8389 0.39417-1.6843 0.49531-2.5232l5.46 3.9975c1.4613 1.0684 3.5112 0.7508 4.5822-0.7131 1.0684-1.4613 0.74944-3.5125-0.71054-4.5809l-4.0428-2.9589 9.709 1.7284c0.91541 0.6703 2.203 0.4694 2.8746-0.4473 0.67035-0.918 0.47067-2.2042-0.44474-2.8772l-2.5388-1.8568 3.7615-0.8739c1.0516-0.2438 1.7063-1.294 1.4639-2.3456-0.24376-1.0528-1.294-1.7076-2.3456-1.4639l-3.4996 0.8129 1.272-2.4221c0.52773-1.0049 0.14134-2.2483-0.86484-2.7786-1.0062-0.5277-2.2483-0.1413-2.7774 0.8675l-7.5995 5.486 2.0253-3.8561c0.8415-1.6026 0.22561-3.5851-1.377-4.4254-1.6013-0.8428-3.5826-0.2243-4.4254 1.377l-3.1443 5.9917c-1.0956-1.7012-2.4895-3.2104-4.1336-4.4448l5.8438-2.7774c1.635-0.778 2.3326-2.7333 1.5546-4.3696-0.77538-1.635-2.7307-2.3313-4.3657-1.5533l-4.5252 2.1511 6.1408-7.7239c1.0269-0.4875 1.4639-1.7141 0.97635-2.7423-0.48753-1.0256-1.7141-1.4626-2.7398-0.9751l-2.8409 1.3511 1.023-3.7265c0.28655-1.0425-0.32675-2.1174-1.3666-2.4039-1.0412-0.2852-2.1161 0.3268-2.4026 1.3692l-0.95172 3.4672-1.5222-2.2691c-0.63275-0.9439-1.9112-1.1968-2.8552-0.5627-0.94264 0.6341-1.1942 1.9125-0.56014 2.8552l1.2084 9.298-2.4273-3.6163c-1.0075-1.5028-3.0445-1.9021-4.5459-0.8934-1.5041 1.0101-1.9034 3.0496-0.89596 4.5524l3.4944 5.2059c-1.9773 0.1712-3.8924 0.6833-5.6649 1.4937l0.29952-6.7048c0.0791-1.8088-1.3212-3.3401-3.13-3.4218-1.8075-0.08-3.3388 1.3226-3.4179 3.1313l-0.2243 5.0075-3.9378-9.0478c0.0493-1.1345-0.82983-2.0953-1.9631-2.1446-1.1358-0.049-2.0979 0.8299-2.1472 1.9657l-0.14133 3.143-2.8085-2.6477c-0.78575-0.7416-2.0214-0.704-2.7618 0.08-0.74166 0.7871-0.70406 2.024 0.0804 2.7644l2.614 2.4649-2.7177 0.2827c-1.1306 0.118-1.9501 1.1306-1.8334 2.26 0.11799 1.1319 1.1294 1.9527 2.2587 1.8347l8.7755 3.2843-4.3307 0.4525c-1.7997 0.188-3.108 1.801-2.9226 3.6007 0.18801 1.8023 1.7997 3.1093 3.5994 2.9213l6.1745-0.6444c-0.35787 0.7974-0.65738 1.6311-0.89596 2.4986-0.26321 0.9595-0.43955 1.9229-0.53421 2.8824-0.0895-0.061-0.18023-0.1167-0.27747-0.1686l-6.5466-3.5631c-1.5884-0.8648-3.58-0.2762-4.4461 1.3148-0.86355 1.5935-0.27748 3.5826 1.3122 4.4474l4.4007 2.3961-9.8517-0.4214c-0.99838-0.542-2.247-0.1737-2.7916 0.826-0.54198 0.9997-0.17245 2.2483 0.82594 2.7903l2.7605 1.5028-3.6124 1.3666c-1.0088 0.3825-1.5183 1.5106-1.1371 2.5193 0.3812 1.0101 1.5093 1.5209 2.5167 1.1384l3.3634-1.2733-0.94005 2.5699c-0.38898 1.0684 0.15948 2.2495 1.2266 2.6398 1.0684 0.389 2.2483-0.1607 2.6373-1.2265l6.802-6.4546-1.495 4.0908c-0.62108 1.7012 0.25414 3.585 1.9527 4.2061 1.7012 0.6211 3.5826-0.2554 4.2036-1.9565l1.9812-5.4263c1.1955 1.7621 2.7216 3.3103 4.5174 4.5369l-5.9463 2.7721c-1.6402 0.7637-2.3521 2.7151-1.5884 4.3566 0.76371 1.6415 2.7125 2.3508 4.354 1.5871l4.542-2.1161-6.2004 7.6747c-1.0295 0.4811-1.4768 1.705-0.99709 2.7359 0.47974 1.0295 1.7024 1.4768 2.732 0.9971l2.8526-1.3277-1.0529 3.7187c-0.29433 1.0386 0.3099 2.1187 1.3485 2.4104 1.0373 0.2956 2.1174-0.3099 2.4117-1.3472l0.97894-3.4607 1.5054 2.282c0.62627 0.9478 1.9008 1.2084 2.85 0.5822 0.94783-0.625 1.2084-1.9034 0.58218-2.8526l-1.1358-9.3058 2.3987 3.6357c0.9958 1.5093 3.0302 1.9255 4.5394 0.9284 1.5106-0.9997 1.9268-3.0328 0.92838-4.5433l-3.8328-5.8088c2.2496-0.2088 4.4163-0.8623 6.3806-1.8931l-1.0114 6.9784c-0.25933 1.7932 0.98154 3.4555 2.7735 3.7148 1.7906 0.2593 3.4542-0.9828 3.7122-2.776l0.72091-4.9608 3.0198 9.3914c-0.16208 1.1242 0.61719 2.1692 1.7401 2.3326 1.1242 0.1634 2.1692-0.6185 2.3313-1.7426l0.45122-3.1158 2.5336 2.9174c0.70795 0.8156 1.941 0.9011 2.7553 0.1932 0.81558-0.7041 0.90115-1.9384 0.1945-2.7527" fill="#fff" stroke-width="1.2966"/><path d="m-720.66 1211.1-2.356-2.7125 2.732-0.012c1.1358 0 2.0525-0.9323 2.0499-2.0681-6e-3 -1.1358-0.93097-2.0538-2.0668-2.0474l-8.4047-4.1427 4.3527-0.021c1.8101-0.01 3.2714-1.4807 3.2649-3.2908-8e-3 -1.8114-1.4807-3.2727-3.2908-3.2662l-7.4542 0.031c-0.27618 0-0.54458 0.038-0.79872 0.1037 0.55755-1.0671 1.0127-2.2107 1.3446-3.4218 0.2308-0.8389 0.39417-1.6843 0.49531-2.5232l5.46 3.9975c1.4613 1.0684 3.5112 0.7508 4.5822-0.7131 1.0684-1.4613 0.74944-3.5125-0.71054-4.5809l-4.0428-2.9589 9.709 1.7284c0.91541 0.6703 2.203 0.4694 2.8746-0.4473 0.67035-0.918 0.47067-2.2042-0.44474-2.8772l-2.5388-1.8568 3.7615-0.8739c1.0516-0.2438 1.7063-1.294 1.4639-2.3456-0.24376-1.0528-1.294-1.7076-2.3456-1.4639l-3.4996 0.8129 1.272-2.4221c0.52773-1.0049 0.14134-2.2483-0.86484-2.7786-1.0062-0.5277-2.2483-0.1413-2.7774 0.8675l-7.5995 5.486 2.0253-3.8561c0.8415-1.6026 0.22561-3.5851-1.377-4.4254-1.6013-0.8428-3.5826-0.2243-4.4254 1.377l-3.1443 5.9917c-1.0956-1.7012-2.4895-3.2104-4.1336-4.4448l5.8438-2.7774c1.635-0.778 2.3326-2.7333 1.5546-4.3696-0.77538-1.635-2.7307-2.3313-4.3657-1.5533l-4.5252 2.1511 6.1408-7.7239c1.0269-0.4875 1.4639-1.7141 0.97635-2.7423-0.48753-1.0256-1.7141-1.4626-2.7398-0.9751l-2.8409 1.3511 1.023-3.7265c0.28655-1.0425-0.32675-2.1174-1.3666-2.4039-1.0412-0.2852-2.1161 0.3268-2.4026 1.3692l-0.95172 3.4672-1.5222-2.2691c-0.63275-0.9439-1.9112-1.1968-2.8552-0.5627-0.94264 0.6341-1.1942 1.9125-0.56014 2.8552l1.2084 9.298-2.4273-3.6163c-1.0075-1.5028-3.0445-1.9021-4.5459-0.8934-1.5041 1.0101-1.9034 3.0496-0.89596 4.5524l3.4944 5.2059c-1.9773 0.1712-3.8924 0.6833-5.6649 1.4937l0.29952-6.7048c0.0791-1.8088-1.3212-3.3401-3.13-3.4218-1.8075-0.08-3.3388 1.3226-3.4179 3.1313l-0.2243 5.0075-3.9378-9.0478c0.0493-1.1345-0.82983-2.0953-1.9631-2.1446-1.1358-0.049-2.0979 0.8299-2.1472 1.9657l-0.14133 3.143-2.8085-2.6477c-0.78575-0.7416-2.0214-0.704-2.7618 0.08-0.74166 0.7871-0.70406 2.024 0.0804 2.7644l2.614 2.4649-2.7177 0.2827c-1.1306 0.118-1.9501 1.1306-1.8334 2.26 0.11799 1.1319 1.1294 1.9527 2.2587 1.8347l8.7755 3.2843-4.3307 0.4525c-1.7997 0.188-3.108 1.801-2.9226 3.6007 0.18801 1.8023 1.7997 3.1093 3.5994 2.9213l6.1745-0.6444c-0.35787 0.7974-0.65738 1.6311-0.89596 2.4986-0.26321 0.9595-0.43955 1.9229-0.53421 2.8824-0.0895-0.061-0.18023-0.1167-0.27747-0.1686l-6.5466-3.5631c-1.5884-0.8648-3.58-0.2762-4.4461 1.3148-0.86355 1.5935-0.27748 3.5826 1.3122 4.4474l4.4007 2.3961-9.8517-0.4214c-0.99838-0.542-2.247-0.1737-2.7916 0.826-0.54198 0.9997-0.17245 2.2483 0.82594 2.7903l2.7605 1.5028-3.6124 1.3666c-1.0088 0.3825-1.5183 1.5106-1.1371 2.5193 0.3812 1.0101 1.5093 1.5209 2.5167 1.1384l3.3634-1.2733-0.94005 2.5699c-0.38898 1.0684 0.15948 2.2495 1.2266 2.6398 1.0684 0.389 2.2483-0.1607 2.6373-1.2265l6.802-6.4546-1.495 4.0908c-0.62108 1.7012 0.25414 3.585 1.9527 4.2061 1.7012 0.6211 3.5826-0.2554 4.2036-1.9565l1.9812-5.4263c1.1955 1.7621 2.7216 3.3103 4.5174 4.5369l-5.9463 2.7721c-1.6402 0.7637-2.3521 2.7151-1.5884 4.3566 0.76371 1.6415 2.7125 2.3508 4.354 1.5871l4.542-2.1161-6.2004 7.6747c-1.0295 0.4811-1.4768 1.705-0.99709 2.7359 0.47974 1.0295 1.7024 1.4768 2.732 0.9971l2.8526-1.3277-1.0529 3.7187c-0.29433 1.0386 0.3099 2.1187 1.3485 2.4104 1.0373 0.2956 2.1174-0.3099 2.4117-1.3472l0.97894-3.4607 1.5054 2.282c0.62627 0.9478 1.9008 1.2084 2.85 0.5822 0.94783-0.625 1.2084-1.9034 0.58218-2.8526l-1.1358-9.3058 2.3987 3.6357c0.9958 1.5093 3.0302 1.9255 4.5394 0.9284 1.5106-0.9997 1.9268-3.0328 0.92838-4.5433l-3.8328-5.8088c2.2496-0.2088 4.4163-0.8623 6.3806-1.8931l-1.0114 6.9784c-0.25933 1.7932 0.98154 3.4555 2.7735 3.7148 1.7906 0.2593 3.4542-0.9828 3.7122-2.776l0.72091-4.9608 3.0198 9.3914c-0.16208 1.1242 0.61719 2.1692 1.7401 2.3326 1.1242 0.1634 2.1692-0.6185 2.3313-1.7426l0.45122-3.1158 2.5336 2.9174c0.70795 0.8156 1.941 0.9011 2.7553 0.1932 0.81558-0.7041 0.90115-1.9384 0.1945-2.7527z" fill="none" stroke="#000" stroke-linecap="round" stroke-linejoin="round" stroke-width="2.5414"/><path d="m-144.15 1002.6-2.3547-2.7125 2.7307-0.0117c1.1358-5e-3 2.0525-0.93226 2.0499-2.0681-6e-3 -1.1358-0.92967-2.0538-2.0668-2.0474l-8.4034-4.1427 4.3514-0.0207c1.8101-8e-3 3.2714-1.4807 3.2649-3.2908-8e-3 -1.8127-1.4807-3.274-3.2895-3.2662l-7.4555 0.0311c-0.27618 3e-3 -0.54328 0.0389-0.79741 0.10502 0.55753-1.0684 1.0126-2.212 1.3446-3.4218 0.2308-0.8402 0.39547-1.6843 0.49401-2.5232l5.4626 3.9975c1.46 1.0684 3.5086 0.75074 4.5809-0.71314 1.0684-1.4613 0.74944-3.5125-0.71184-4.5809l-4.0416-2.9602 9.709 1.7284c0.91541 0.67035 2.203 0.47067 2.8746-0.44603 0.67034-0.91801 0.46937-2.2055-0.44603-2.8772l-2.5375-1.8568 3.7602-0.87392c1.0516-0.24377 1.7063-1.294 1.4639-2.3443-0.24376-1.0542-1.294-1.7089-2.3456-1.4639l-3.4996 0.81298 1.2707-2.4221c0.52772-1.0062 0.14133-2.2496-0.86355-2.7786-1.0062-0.52773-2.2496-0.14134-2.7786 0.86743l-7.5995 5.4873 2.0253-3.8561c0.8415-1.6026 0.22561-3.5851-1.377-4.4253-1.6013-0.8441-3.5825-0.22432-4.4253 1.377l-3.1456 5.9917c-1.0943-1.6999-2.4895-3.2091-4.1336-4.4435l5.8438-2.7774c1.635-0.77797 2.3326-2.7333 1.5546-4.3696-0.77668-1.635-2.7307-2.3313-4.3657-1.5534l-4.5252 2.1511 6.1408-7.7239c1.0282-0.48753 1.4639-1.7141 0.97634-2.7423-0.48752-1.0256-1.7141-1.4626-2.7398-0.97505l-2.8409 1.3511 1.023-3.7265c0.28784-1.0425-0.32546-2.1174-1.3653-2.4039-1.0412-0.28525-2.1174 0.32675-2.4039 1.3692l-0.95172 3.4672-1.5222-2.2691c-0.63274-0.94393-1.9125-1.1968-2.8538-0.56273-0.94393 0.63405-1.1955 1.9125-0.56273 2.8552l1.211 9.298-2.4286-3.6163c-1.0075-1.5028-3.0458-1.9021-4.5459-0.89336-1.5041 1.0101-1.9034 3.0483-0.89465 4.5511l3.4931 5.2059c-1.9773 0.17116-3.8924 0.68332-5.6649 1.4937l0.29951-6.7048c0.0804-1.8075-1.3212-3.3401-3.1287-3.4205s-3.3401 1.3212-3.4192 3.1313l-0.22561 5.0075-3.9378-9.0465c0.0506-1.1345-0.82854-2.0966-1.9631-2.1459-1.1345-0.0493-2.0966 0.82983-2.1472 1.9657l-0.13874 3.143-2.8098-2.6477c-0.78445-0.74296-2.0227-0.70406-2.7618 0.0804-0.74167 0.78835-0.70406 2.024 0.0804 2.7644l2.614 2.4649-2.7177 0.28266c-1.1306 0.118-1.9501 1.1306-1.8334 2.26 0.11669 1.132 1.1294 1.9527 2.2587 1.8347l8.7755 3.2856-4.3307 0.45122c-1.801 0.18801-3.1067 1.801-2.9226 3.602 0.18801 1.801 1.7984 3.1093 3.5981 2.92l6.1745-0.64442c-0.35657 0.79872-0.65738 1.6312-0.89466 2.4986-0.26322 0.9595-0.43956 1.9242-0.53421 2.8824-0.0895-0.0609-0.18152-0.1167-0.27747-0.16856l-6.5466-3.5631c-1.5896-0.86484-3.5812-0.27618-4.4474 1.3148-0.86355 1.5922-0.27618 3.5812 1.3135 4.4461l4.4007 2.3961-9.8517-0.4214c-0.99839-0.54198-2.247-0.17374-2.7903 0.82465-0.54198 0.99969-0.17374 2.2496 0.82465 2.7916l2.7618 1.5028-3.6124 1.3666c-1.0088 0.3825-1.5183 1.5106-1.1384 2.5193 0.38251 1.0101 1.5093 1.5209 2.5167 1.1384l3.3634-1.2733-0.94134 2.5699c-0.38769 1.0684 0.16208 2.2496 1.2279 2.6399 1.0671 0.38899 2.247-0.16078 2.6373-1.2266l6.8007-6.4546-1.4937 4.0921c-0.62107 1.7012 0.25284 3.5838 1.9527 4.2062 1.7012 0.62107 3.5825-0.25543 4.2036-1.9566l1.9812-5.4263c1.1955 1.7634 2.7203 3.3103 4.5161 4.5382l-5.9476 2.7722c-1.6389 0.7637-2.3495 2.7151-1.5884 4.3566 0.76501 1.6416 2.7125 2.3508 4.354 1.587l4.542-2.1162-6.1991 7.6748c-1.0308 0.4811-1.4768 1.705-0.99969 2.7359 0.47975 1.0295 1.7025 1.4768 2.7333 0.9971l2.8512-1.3277-1.0528 3.7187c-0.29563 1.0386 0.30989 2.1187 1.3485 2.4104 1.0386 0.2957 2.1161-0.3099 2.4104-1.3472l0.98024-3.4607 1.5041 2.282c0.62626 0.9479 1.9021 1.2084 2.8513 0.5822 0.94653-0.625 1.2084-1.9034 0.58088-2.8526l-1.1345-9.3058 2.3974 3.6357c0.9971 1.5093 3.0302 1.9255 4.5408 0.9284 1.5093-0.9997 1.9255-3.0328 0.92838-4.5433l-3.8328-5.8088c2.2483-0.20876 4.415-0.86225 6.3806-1.8931l-1.0126 6.9784c-0.25803 1.7932 0.98283 3.4556 2.7748 3.7148 1.7906 0.2593 3.4542-0.9828 3.7122-2.776l0.72092-4.9608 3.0198 9.3914c-0.16208 1.1242 0.61848 2.1692 1.74 2.3326 1.1242 0.1634 2.1705-0.6185 2.3326-1.7426l0.44993-3.1158 2.5336 2.9174c0.70796 0.8156 1.9423 0.9011 2.7566 0.1932 0.82076-0.7106 0.90763-1.9449 0.19968-2.7592z" fill="#fff" stroke="#000" stroke-linecap="round" stroke-linejoin="round" stroke-width="2.5414"/><path d="m-677.27 865.61-2.3559-2.7125 2.732-0.0117c1.1358-4e-3 2.0525-0.93097 2.05-2.0668-6e-3 -1.1358-0.93097-2.0538-2.0668-2.0474l-8.4047-4.144 4.3527-0.0195c1.8101-8e-3 3.2714-1.4807 3.2649-3.2908-8e-3 -1.8127-1.4807-3.274-3.2908-3.2662l-7.4542 0.0311c-0.27618 3e-3 -0.54457 0.0389-0.79871 0.10503 0.55754-1.0684 1.0127-2.212 1.3446-3.4218 0.23079-0.84021 0.39416-1.6843 0.4953-2.5232l5.46 3.9975c1.4613 1.0684 3.5112 0.75073 4.5822-0.71314 1.0684-1.4613 0.74944-3.5125-0.71054-4.5809l-4.0428-2.9602 9.709 1.7284c0.91541 0.67035 2.203 0.47067 2.8746-0.44604 0.67035-0.918 0.47067-2.2055-0.44474-2.8772l-2.5388-1.8568 3.7615-0.87392c1.0516-0.24376 1.7064-1.294 1.4639-2.3443-0.24376-1.0541-1.294-1.7089-2.3456-1.4639l-3.4996 0.81298 1.272-2.4221c0.52772-1.0062 0.14133-2.2496-0.86484-2.7786-1.0062-0.52772-2.2483-0.14133-2.7774 0.86744l-7.5995 5.4873 2.0253-3.8561c0.84151-1.6026 0.22561-3.5851-1.377-4.4254-1.6013-0.8441-3.5826-0.22431-4.4254 1.377l-3.1443 5.9916c-1.0956-1.6999-2.4895-3.2091-4.1336-4.4435l5.8438-2.7774c1.635-0.77796 2.3326-2.7333 1.5546-4.3696-0.77538-1.635-2.7307-2.3313-4.3657-1.5533l-4.5252 2.1511 6.1408-7.7239c1.0269-0.48753 1.4639-1.7141 0.97635-2.7423-0.48753-1.0256-1.7141-1.4626-2.7398-0.97506l-2.8409 1.3511 1.023-3.7265c0.28655-1.0425-0.32675-2.1174-1.3666-2.4039-1.0412-0.28526-2.1161 0.32675-2.4026 1.3692l-0.95171 3.4672-1.5222-2.2691c-0.63275-0.94394-1.9112-1.1968-2.8552-0.56273-0.94264 0.63404-1.1942 1.9125-0.56014 2.8551l1.2084 9.298-2.4273-3.6163c-1.0075-1.5028-3.0444-1.9021-4.5459-0.89337-1.5041 1.0101-1.9034 3.0483-0.89596 4.5511l3.4944 5.2059c-1.9773 0.17115-3.8924 0.68331-5.6649 1.4937l0.29952-6.7048c0.0791-1.8075-1.3212-3.3401-3.13-3.4205-1.8075-0.0804-3.3388 1.3212-3.4179 3.1313l-0.22431 5.0075-3.9378-9.0465c0.0493-1.1345-0.82984-2.0966-1.9631-2.1459-1.1358-0.0493-2.0979 0.82984-2.1472 1.9657l-0.14133 3.143-2.8085-2.6477c-0.78575-0.74296-2.0214-0.70406-2.7618 0.0804-0.74167 0.78834-0.70406 2.024 0.0804 2.7644l2.614 2.4649-2.7177 0.28266c-1.1306 0.11799-1.9501 1.1306-1.8334 2.26 0.11799 1.1319 1.1294 1.9527 2.2587 1.8347l8.7755 3.2856-4.3307 0.45121c-1.7997 0.18801-3.108 1.801-2.9226 3.602 0.188 1.801 1.7997 3.1093 3.5994 2.92l6.1745-0.64442c-0.35787 0.79871-0.65739 1.6311-0.89596 2.4986-0.26322 0.95949-0.43956 1.9242-0.53421 2.8824-0.0895-0.0609-0.18023-0.11669-0.27747-0.16856l-6.5466-3.5631c-1.5884-0.86484-3.58-0.27618-4.4461 1.3148-0.86355 1.5922-0.27748 3.5812 1.3122 4.4461l4.4007 2.3962-9.8517-0.4214c-0.99839-0.54199-2.247-0.17375-2.7916 0.82464-0.54199 0.99969-0.17245 2.2496 0.82594 2.7916l2.7605 1.5028-3.6124 1.3666c-1.0088 0.3825-1.5183 1.5106-1.1371 2.5193 0.3812 1.0101 1.5092 1.5209 2.5167 1.1384l3.3634-1.2733-0.94004 2.5699c-0.38899 1.0684 0.15948 2.2496 1.2266 2.6399 1.0684 0.38898 2.2483-0.16077 2.6373-1.2266l6.802-6.4546-1.495 4.0921c-0.62108 1.7012 0.25413 3.5838 1.9527 4.2062 1.7012 0.61978 3.5825-0.25673 4.2036-1.9566l1.9812-5.4263c1.1955 1.7634 2.7216 3.3103 4.5174 4.5369l-5.9463 2.7722c-1.6402 0.76371-2.3521 2.7151-1.5884 4.3566s2.7125 2.3521 4.354 1.587l4.542-2.1161-6.2004 7.6747c-1.0295 0.48105-1.4768 1.7064-0.9971 2.7359 0.47975 1.0295 1.7025 1.4768 2.732 0.9971l2.8526-1.3277-1.0528 3.7187c-0.29433 1.0386 0.30989 2.1187 1.3485 2.4104 1.0373 0.29563 2.1174-0.30989 2.4117-1.3472l0.97894-3.4607 1.5054 2.282c0.62626 0.94783 1.9008 1.2084 2.85 0.58218 0.94782-0.62496 1.2084-1.9034 0.58218-2.8526l-1.1358-9.3058 2.3987 3.6357c0.9958 1.5093 3.0302 1.9255 4.5394 0.92838 1.5106-0.99969 1.9268-3.0328 0.92838-4.5433l-3.8328-5.8101c2.2496-0.20875 4.4163-0.86224 6.3806-1.8931l-1.0114 6.9784c-0.25932 1.7932 0.98153 3.4555 2.7734 3.7148 1.7906 0.26061 3.4542-0.98154 3.7122-2.7748l0.72092-4.9608 3.0198 9.3914c-0.16208 1.1242 0.61719 2.1692 1.74 2.3326 1.1242 0.16338 2.1692-0.61848 2.3313-1.7426l0.45122-3.1158 2.5336 2.9174c0.70795 0.81428 1.941 0.90115 2.7553 0.1932 0.81557-0.71055 0.89985-1.9449 0.19449-2.7592" fill="#fff" stroke-width="1.2966"/><path d="m-677.27 865.61-2.3559-2.7125 2.732-0.0117c1.1358-4e-3 2.0525-0.93097 2.05-2.0668-6e-3 -1.1358-0.93097-2.0538-2.0668-2.0474l-8.4047-4.144 4.3527-0.0195c1.8101-8e-3 3.2714-1.4807 3.2649-3.2908-8e-3 -1.8127-1.4807-3.274-3.2908-3.2662l-7.4542 0.0311c-0.27618 3e-3 -0.54457 0.0389-0.79871 0.10503 0.55754-1.0684 1.0127-2.212 1.3446-3.4218 0.23079-0.84021 0.39416-1.6843 0.4953-2.5232l5.46 3.9975c1.4613 1.0684 3.5112 0.75073 4.5822-0.71314 1.0684-1.4613 0.74944-3.5125-0.71054-4.5809l-4.0428-2.9602 9.709 1.7284c0.91541 0.67035 2.203 0.47067 2.8746-0.44604 0.67035-0.918 0.47067-2.2055-0.44474-2.8772l-2.5388-1.8568 3.7615-0.87392c1.0516-0.24376 1.7064-1.294 1.4639-2.3443-0.24376-1.0541-1.294-1.7089-2.3456-1.4639l-3.4996 0.81298 1.272-2.4221c0.52772-1.0062 0.14133-2.2496-0.86484-2.7786-1.0062-0.52772-2.2483-0.14133-2.7774 0.86744l-7.5995 5.4873 2.0253-3.8561c0.84151-1.6026 0.22561-3.5851-1.377-4.4254-1.6013-0.8441-3.5826-0.22431-4.4254 1.377l-3.1443 5.9916c-1.0956-1.6999-2.4895-3.2091-4.1336-4.4435l5.8438-2.7774c1.635-0.77796 2.3326-2.7333 1.5546-4.3696-0.77538-1.635-2.7307-2.3313-4.3657-1.5533l-4.5252 2.1511 6.1408-7.7239c1.0269-0.48753 1.4639-1.7141 0.97635-2.7423-0.48753-1.0256-1.7141-1.4626-2.7398-0.97506l-2.8409 1.3511 1.023-3.7265c0.28655-1.0425-0.32675-2.1174-1.3666-2.4039-1.0412-0.28526-2.1161 0.32675-2.4026 1.3692l-0.95171 3.4672-1.5222-2.2691c-0.63275-0.94394-1.9112-1.1968-2.8552-0.56273-0.94264 0.63404-1.1942 1.9125-0.56014 2.8551l1.2084 9.298-2.4273-3.6163c-1.0075-1.5028-3.0444-1.9021-4.5459-0.89337-1.5041 1.0101-1.9034 3.0483-0.89596 4.5511l3.4944 5.2059c-1.9773 0.17115-3.8924 0.68331-5.6649 1.4937l0.29952-6.7048c0.0791-1.8075-1.3212-3.3401-3.13-3.4205-1.8075-0.0804-3.3388 1.3212-3.4179 3.1313l-0.22431 5.0075-3.9378-9.0465c0.0493-1.1345-0.82984-2.0966-1.9631-2.1459-1.1358-0.0493-2.0979 0.82984-2.1472 1.9657l-0.14133 3.143-2.8085-2.6477c-0.78575-0.74296-2.0214-0.70406-2.7618 0.0804-0.74167 0.78834-0.70406 2.024 0.0804 2.7644l2.614 2.4649-2.7177 0.28266c-1.1306 0.11799-1.9501 1.1306-1.8334 2.26 0.11799 1.1319 1.1294 1.9527 2.2587 1.8347l8.7755 3.2856-4.3307 0.45121c-1.7997 0.18801-3.108 1.801-2.9226 3.602 0.188 1.801 1.7997 3.1093 3.5994 2.92l6.1745-0.64442c-0.35787 0.79871-0.65739 1.6311-0.89596 2.4986-0.26322 0.95949-0.43956 1.9242-0.53421 2.8824-0.0895-0.0609-0.18023-0.11669-0.27747-0.16856l-6.5466-3.5631c-1.5884-0.86484-3.58-0.27618-4.4461 1.3148-0.86355 1.5922-0.27748 3.5812 1.3122 4.4461l4.4007 2.3962-9.8517-0.4214c-0.99839-0.54199-2.247-0.17375-2.7916 0.82464-0.54199 0.99969-0.17245 2.2496 0.82594 2.7916l2.7605 1.5028-3.6124 1.3666c-1.0088 0.3825-1.5183 1.5106-1.1371 2.5193 0.3812 1.0101 1.5092 1.5209 2.5167 1.1384l3.3634-1.2733-0.94004 2.5699c-0.38899 1.0684 0.15948 2.2496 1.2266 2.6399 1.0684 0.38898 2.2483-0.16077 2.6373-1.2266l6.802-6.4546-1.495 4.0921c-0.62108 1.7012 0.25413 3.5838 1.9527 4.2062 1.7012 0.61978 3.5825-0.25673 4.2036-1.9566l1.9812-5.4263c1.1955 1.7634 2.7216 3.3103 4.5174 4.5369l-5.9463 2.7722c-1.6402 0.76371-2.3521 2.7151-1.5884 4.3566s2.7125 2.3521 4.354 1.587l4.542-2.1161-6.2004 7.6747c-1.0295 0.48105-1.4768 1.7064-0.9971 2.7359 0.47975 1.0295 1.7025 1.4768 2.732 0.9971l2.8526-1.3277-1.0528 3.7187c-0.29433 1.0386 0.30989 2.1187 1.3485 2.4104 1.0373 0.29563 2.1174-0.30989 2.4117-1.3472l0.97894-3.4607 1.5054 2.282c0.62626 0.94783 1.9008 1.2084 2.85 0.58218 0.94782-0.62496 1.2084-1.9034 0.58218-2.8526l-1.1358-9.3058 2.3987 3.6357c0.9958 1.5093 3.0302 1.9255 4.5394 0.92838 1.5106-0.99969 1.9268-3.0328 0.92838-4.5433l-3.8328-5.8101c2.2496-0.20875 4.4163-0.86224 6.3806-1.8931l-1.0114 6.9784c-0.25932 1.7932 0.98153 3.4555 2.7734 3.7148 1.7906 0.26061 3.4542-0.98154 3.7122-2.7748l0.72092-4.9608 3.0198 9.3914c-0.16208 1.1242 0.61719 2.1692 1.74 2.3326 1.1242 0.16338 2.1692-0.61848 2.3313-1.7426l0.45122-3.1158 2.5336 2.9174c0.70795 0.81428 1.941 0.90115 2.7553 0.1932 0.81557-0.71055 0.89985-1.9449 0.19449-2.7592z" fill="none" stroke="#000" stroke-linecap="round" stroke-linejoin="round" stroke-width="2.5414"/><path d="m-348.82 1425.3-2.3546-2.7125 2.7307-0.012c1.1358-0.01 2.0525-0.9323 2.0499-2.0681-6e-3 -1.1358-0.92967-2.0538-2.0668-2.0474l-8.4034-4.1427 4.3514-0.021c1.8101-0.01 3.2714-1.4807 3.2649-3.2908-8e-3 -1.8114-1.4807-3.2727-3.2895-3.2662l-7.4555 0.031c-0.27618 0-0.54328 0.038-0.79742 0.1037 0.55754-1.0671 1.0127-2.2107 1.3446-3.4218 0.2308-0.8389 0.39547-1.6843 0.49401-2.5232l5.4626 3.9975c1.46 1.0684 3.5099 0.7508 4.5809-0.7131 1.0684-1.4613 0.74944-3.5125-0.71184-4.5809l-4.0416-2.9589 9.709 1.7284c0.91541 0.6704 2.203 0.4694 2.8746-0.4473 0.67035-0.918 0.46937-2.2042-0.44604-2.8772l-2.5375-1.8568 3.7602-0.8739c1.0516-0.2438 1.7063-1.294 1.4639-2.3456-0.24377-1.0528-1.294-1.7076-2.3456-1.4639l-3.4996 0.8129 1.2707-2.422c0.52771-1.0049 0.14133-2.2483-0.86355-2.7786-1.0062-0.5278-2.2483-0.1414-2.7786 0.8674l-7.5995 5.486 2.0253-3.8561c0.8415-1.6026 0.22561-3.5851-1.377-4.4254-1.6013-0.8428-3.5825-0.2243-4.4253 1.377l-3.1456 5.9917c-1.0943-1.7012-2.4895-3.2104-4.1336-4.4448l5.8438-2.7774c1.635-0.778 2.3326-2.7333 1.5546-4.3696-0.77668-1.635-2.7307-2.3313-4.3657-1.5534l-4.5252 2.1511 6.1421-7.7239c1.0269-0.4875 1.4626-1.7141 0.97506-2.7423-0.48753-1.0256-1.7141-1.4626-2.7398-0.975l-2.8409 1.3511 1.023-3.7265c0.28655-1.0425-0.32545-2.1174-1.3653-2.4039-1.0412-0.2853-2.1174 0.3267-2.4039 1.3692l-0.95172 3.4672-1.5222-2.2691c-0.63275-0.944-1.9125-1.1968-2.8538-0.5628-0.94394 0.6341-1.1955 1.9125-0.56273 2.8552l1.211 9.298-2.4286-3.6163c-1.0075-1.5028-3.0444-1.9021-4.5459-0.8933-1.5041 1.0101-1.9021 3.0496-0.89466 4.5524l3.4931 5.2059c-1.9773 0.1711-3.8924 0.6833-5.6649 1.4937l0.29822-6.7048c0.0804-1.8088-1.32-3.3401-3.1274-3.4218-1.8088-0.08-3.3401 1.3226-3.4192 3.1313l-0.22561 5.0075-3.9378-9.0478c0.0506-1.1345-0.82854-2.0953-1.9631-2.1446-1.1345-0.049-2.0966 0.8298-2.1472 1.9657l-0.13874 3.143-2.8098-2.6477c-0.78445-0.7417-2.0227-0.7041-2.7618 0.08-0.74166 0.787-0.70406 2.024 0.0804 2.7644l2.614 2.4649-2.7177 0.2826c-1.1306 0.118-1.9501 1.1306-1.8334 2.26 0.11669 1.1319 1.1294 1.9527 2.2587 1.8347l8.7755 3.2843-4.3307 0.4525c-1.801 0.1881-3.1067 1.801-2.9226 3.6007 0.188 1.8023 1.7984 3.1093 3.5981 2.9213l6.1745-0.6444c-0.35657 0.7974-0.65737 1.6311-0.89465 2.4986-0.26322 0.9595-0.43955 1.9229-0.53421 2.8824-0.0895-0.061-0.18152-0.1167-0.27747-0.1685l-6.5466-3.5631c-1.5896-0.8649-3.5812-0.2762-4.4474 1.3148-0.86355 1.5935-0.27618 3.5825 1.3135 4.4474l4.4007 2.3961-9.8517-0.4214c-0.99839-0.542-2.247-0.1738-2.7903 0.8259-0.54199 0.9997-0.17375 2.2483 0.82464 2.7903l2.7618 1.5028-3.6124 1.3666c-1.0088 0.3825-1.5183 1.5106-1.1384 2.5193 0.3825 1.0101 1.5093 1.5209 2.5167 1.1384l3.3634-1.2733-0.94004 2.5699c-0.38899 1.0684 0.16078 2.2496 1.2266 2.6399 1.0671 0.389 2.247-0.1608 2.6373-1.2266l6.8008-6.4545-1.4937 4.0908c-0.62108 1.7012 0.25284 3.5851 1.9527 4.2062 1.7012 0.6211 3.5825-0.2554 4.2036-1.9566l1.9812-5.4263c1.1955 1.7621 2.7203 3.3103 4.5161 4.5368l-5.9476 2.7722c-1.6389 0.7637-2.3495 2.7151-1.5884 4.3566 0.76501 1.6415 2.7125 2.3508 4.354 1.5871l4.542-2.1161-6.1991 7.6747c-1.0308 0.481-1.4768 1.705-0.99839 2.7359 0.47845 1.0295 1.7012 1.4768 2.732 0.9971l2.8512-1.3277-1.0528 3.7187c-0.29563 1.0386 0.30989 2.1187 1.3485 2.4104 1.0386 0.2956 2.1174-0.3099 2.4104-1.3472l0.98023-3.4607 1.5041 2.282c0.62627 0.9478 1.9021 1.2084 2.8513 0.5821 0.94653-0.6249 1.2084-1.9034 0.58218-2.8526l-1.1371-9.3058 2.3987 3.6357c0.99709 1.5093 3.0302 1.9255 4.5407 0.9284 1.5093-0.9997 1.9255-3.0328 0.92838-4.5433l-3.8328-5.8088c2.2483-0.2087 4.415-0.8622 6.3806-1.893l-1.0114 6.9784c-0.25933 1.7932 0.98153 3.4555 2.7735 3.7148 1.7906 0.2593 3.4542-0.9828 3.7122-2.776l0.72092-4.9608 3.0198 9.3914c-0.16208 1.1242 0.61848 2.1692 1.74 2.3326 1.1242 0.1634 2.1705-0.6185 2.3326-1.7426l0.45123-3.1158 2.5323 2.9174c0.70924 0.8156 1.9423 0.9012 2.7566 0.1932 0.82076-0.704 0.90763-1.9397 0.19968-2.7527" fill="#fff" stroke="#000" stroke-width="2.5"/></g><g transform="translate(865.34,-485.16)"><g><g stroke-width="1.2966"><path transform="translate(-865.35,485.16)" d="m363.76 384.39c-1.8178 5.2656-7.1768 8.4397-11.976 7.1054-4.7936-1.3303-7.2131-6.6892-5.3952-11.955 1.8269-5.2591 7.191-8.441 11.982-7.0977 4.7936 1.3368 7.2131 6.6815 5.3887 11.947"/><path transform="translate(-865.35,485.16)" d="m413.39 392.98c0.22432 5.5728 4.4422 10.164 9.4199 10.264 4.9712 0.10762 8.8286-4.3242 8.6069-9.8841-0.23209-5.5677-4.4474-10.158-9.4186-10.265-4.979-0.0998-8.8377 4.3242-8.6082 9.8854"/><path transform="translate(-865.35,485.16)" d="m370.59 467.17c-10.481-2.4636-19.253-6.946-24.41-11.924-0.0285 0.0765-0.0661 0.13485-0.10114 0.20746-4.7832 13.419 0.71184 30.107 12.951 34.46 12.214 4.345 26.53-5.2798 31.308-18.708 0.29433-0.81168 0.39417-1.6441 0.34361-2.4636-5.8763 0.58995-12.822 0.13614-20.091-1.5728"/></g><path d="m-554.35 891.91a2.9429 2.9429 0 1 0 0 5.8848h9.7148c0.71896 20.609 8.9 36.822 27.146 48.648v-2e-3c18.164 11.783 45.054 14.035 62.422 3.7812a2.9429 2.9429 0 1 0-2.9922-5.0684c-14.63 8.6376-40.081 6.8238-56.227-3.6504a2.9429 2.9429 0 0 0-2e-3 0c-17.744-11.501-24.604-25.988-24.604-46.652a2.9429 2.9429 0 0 0-2.9434-2.9414z" color="#000000" color-rendering="auto" dominant-baseline="auto" enable-background="accumulate" image-rendering="auto" shape-rendering="auto" solid-color="#000000" style="font-feature-settings:normal;font-variant-alternates:normal;font-variant-caps:normal;font-variant-ligatures:normal;font-variant-numeric:normal;font-variant-position:normal;isolation:auto;mix-blend-mode:normal;shape-padding:0;text-decoration-color:#000000;text-decoration-line:none;text-decoration-style:solid;text-indent:0;text-orientation:mixed;text-transform:none;white-space:normal"/></g><path d="m-344.94 1203.6c-2.1913 12.777-11.602 21.832-21.019 20.216-9.4238-1.6104-15.279-13.281-13.089-26.063 2.1913-12.779 11.601-21.841 21.019-20.225 9.4199 1.6182 15.279 13.292 13.089 26.072" stroke-width="1.2966"/><path d="m-410.91 861.51-13.863-33.922-10.136 9.2824z" stroke-width="1.2966"/></g></svg>
