<?xml version="1.0" encoding="UTF-8"?>
<svg width="35.454mm" height="35.454mm" version="1.1" viewBox="0 0 35.454 35.454" xmlns="http://www.w3.org/2000/svg" xmlns:cc="http://creativecommons.org/ns#" xmlns:dc="http://purl.org/dc/elements/1.1/" xmlns:rdf="http://www.w3.org/1999/02/22-rdf-syntax-ns#">
 <metadata>
  <rdf:RDF>
   <cc:Work rdf:about="">
    <dc:format>image/svg+xml</dc:format>
    <dc:type rdf:resource="http://purl.org/dc/dcmitype/StillImage"/>
    <dc:title/>
   </cc:Work>
  </rdf:RDF>
 </metadata>
 <g transform="translate(-88.106 -130.44)">
  <g transform="matrix(.079375 0 0 .079375 71.566 185.14)" fill="#eeefae">
   <g fill="#eeefae">
    <path d="m213.33 0c-117.82 0-213.33 95.513-213.33 213.33s95.513 213.33 213.33 213.33 213.33-95.513 213.33-213.33-95.512-213.33-213.33-213.33zm0 388.05c-96.495 0-174.72-78.225-174.72-174.72s78.225-174.72 174.72-174.72c96.446 0.117 174.6 78.273 174.72 174.72 0 96.496-78.224 174.72-174.72 174.72z" fill="#eeefae"/>
   </g>
  </g>
  <g fill="#9b9c72">
   <g transform="matrix(.056127 -.056127 .059811 .059811 68.994 193.58)">
    <g transform="translate(-2.5254 177.74)" fill="#9b9c72">
     <g>
      <path d="m212.49 47.244v0.68945l0.16797 340.79 47.758-0.10351 0.48828-340.26zm1.3457 1.377 45.721 1.0605-0.48437 337.6-45.068 0.0977z" color="#000000" color-rendering="auto" dominant-baseline="auto" image-rendering="auto" shape-rendering="auto" solid-color="#000000" stop-color="#000000" style="font-feature-settings:normal;font-variant-alternates:normal;font-variant-caps:normal;font-variant-east-asian:normal;font-variant-ligatures:normal;font-variant-numeric:normal;font-variant-position:normal;font-variation-settings:normal;inline-size:0;isolation:auto;mix-blend-mode:normal;shape-margin:0;shape-padding:0;text-decoration-color:#000000;text-decoration-line:none;text-decoration-style:solid;text-indent:0;text-orientation:mixed;text-transform:none;white-space:normal"/>
     </g>
    </g>
   </g>
   <g transform="matrix(.079375 0 0 .079375 78.385 176.4)">
    <g fill="#9b9c72"></g>
   </g>
   <path d="m105.04 132.03c-9.352 0-16.933 7.5814-16.933 16.933 0 9.352 7.5814 16.933 16.933 16.933 9.352 0 16.933-7.5814 16.933-16.933 0-9.352-7.5813-16.933-16.933-16.933zm0 3.0649c7.6554 9e-3 13.86 6.2129 13.869 13.868 0 3.1698-1.0662 6.0891-2.8556 8.4248l-19.409-19.461c2.3307-1.7758 5.239-2.8324 8.3954-2.8324zm-11.036 5.473 19.442 19.424c-2.3324 1.7804-5.2449 2.8396-8.4057 2.8396-7.6593 0-13.868-6.2091-13.868-13.868 0-3.1562 1.0566-6.0646 2.8324-8.3954z" color="#000000" color-rendering="auto" dominant-baseline="auto" image-rendering="auto" shape-rendering="auto" solid-color="#000000" stop-color="#000000" style="font-feature-settings:normal;font-variant-alternates:normal;font-variant-caps:normal;font-variant-east-asian:normal;font-variant-ligatures:normal;font-variant-numeric:normal;font-variant-position:normal;font-variation-settings:normal;inline-size:0;isolation:auto;mix-blend-mode:normal;shape-margin:0;shape-padding:0;text-decoration-color:#000000;text-decoration-line:none;text-decoration-style:solid;text-indent:0;text-orientation:mixed;text-transform:none;white-space:normal"/>
  </g>
  <path d="m106.63 130.44c-9.352 0-16.933 7.5814-16.933 16.933 0 9.352 7.5814 16.933 16.933 16.933 9.352 0 16.933-7.5814 16.933-16.933 0-9.352-7.5813-16.933-16.933-16.933zm0 3.0649c7.6554 9e-3 13.86 6.2129 13.869 13.868 0 3.1698-1.0662 6.0891-2.8556 8.4248l-19.409-19.461c2.3307-1.7758 5.2391-2.8324 8.3954-2.8324zm-11.036 5.473 19.442 19.424c-2.3324 1.7804-5.2449 2.8396-8.4057 2.8396-7.6593 0-13.868-6.2091-13.868-13.868 0-3.1562 1.0566-6.0646 2.8324-8.3954z" color="#000000" color-rendering="auto" dominant-baseline="auto" fill="#eeefae" image-rendering="auto" shape-rendering="auto" solid-color="#000000" stop-color="#000000" style="font-feature-settings:normal;font-variant-alternates:normal;font-variant-caps:normal;font-variant-east-asian:normal;font-variant-ligatures:normal;font-variant-numeric:normal;font-variant-position:normal;font-variation-settings:normal;inline-size:0;isolation:auto;mix-blend-mode:normal;shape-margin:0;shape-padding:0;text-decoration-color:#000000;text-decoration-line:none;text-decoration-style:solid;text-indent:0;text-orientation:mixed;text-transform:none;white-space:normal"/>
 </g>
</svg>
