<?xml version="1.0" encoding="UTF-8"?>
<svg width="35.454mm" height="35.454mm" version="1.1" viewBox="0 0 35.454 35.454" xmlns="http://www.w3.org/2000/svg" xmlns:cc="http://creativecommons.org/ns#" xmlns:dc="http://purl.org/dc/elements/1.1/" xmlns:rdf="http://www.w3.org/1999/02/22-rdf-syntax-ns#">
 <metadata>
  <rdf:RDF>
   <cc:Work rdf:about="">
    <dc:format>image/svg+xml</dc:format>
    <dc:type rdf:resource="http://purl.org/dc/dcmitype/StillImage"/>
    <dc:title/>
   </cc:Work>
  </rdf:RDF>
 </metadata>
 <g transform="translate(-88.106 -130.44)">
  <g transform="matrix(.079375 0 0 .079375 89.694 130.44)" fill="#eeefae">
   <g fill="#eeefae">
    <polygon points="190.08 240.21 137.17 187.09 108.8 215.47 192.21 298.67 326.19 168.75 293.33 135.04"/>
    <path d="m213.33 0c-117.82 0-213.33 95.513-213.33 213.33s95.513 213.33 213.33 213.33 213.33-95.513 213.33-213.33-95.512-213.33-213.33-213.33zm0 388.05c-96.495 0-174.72-78.225-174.72-174.72s78.225-174.72 174.72-174.72c96.446 0.117 174.6 78.273 174.72 174.72 0 96.496-78.224 174.72-174.72 174.72z"/>
   </g>
  </g>
  <g transform="matrix(.079375 0 0 .079375 88.106 132.03)" fill="#9b9c72">
   <g fill="#9b9c72">
    <polygon points="293.33 135.04 190.08 240.21 137.17 187.09 108.8 215.47 192.21 298.67 326.19 168.75"/>
    <path d="m213.33 0c-117.82 0-213.33 95.513-213.33 213.33s95.513 213.33 213.33 213.33 213.33-95.513 213.33-213.33-95.512-213.33-213.33-213.33zm0 388.05c-96.495 0-174.72-78.225-174.72-174.72s78.225-174.72 174.72-174.72c96.446 0.117 174.6 78.273 174.72 174.72 0 96.496-78.224 174.72-174.72 174.72z"/>
   </g>
  </g>
 </g>
</svg>
