<?xml version="1.0" encoding="UTF-8" standalone="no"?>
<svg
   xmlns:dc="http://purl.org/dc/elements/1.1/"
   xmlns:cc="http://creativecommons.org/ns#"
   xmlns:rdf="http://www.w3.org/1999/02/22-rdf-syntax-ns#"
   xmlns:svg="http://www.w3.org/2000/svg"
   xmlns="http://www.w3.org/2000/svg"
   xmlns:sodipodi="http://sodipodi.sourceforge.net/DTD/sodipodi-0.dtd"
   xmlns:inkscape="http://www.inkscape.org/namespaces/inkscape"
   width="35.454mm"
   height="35.454mm"
   version="1.1"
   viewBox="0 0 35.454 35.454"
   id="svg22"
   sodipodi:docname="cook.svg"
   inkscape:version="1.0.1 (3bc2e813f5, 2020-09-07)">
  <defs
     id="defs26" />
  <sodipodi:namedview
     pagecolor="#ffffff"
     bordercolor="#666666"
     borderopacity="1"
     objecttolerance="10"
     gridtolerance="10"
     guidetolerance="10"
     inkscape:pageopacity="0"
     inkscape:pageshadow="2"
     inkscape:window-width="1366"
     inkscape:window-height="705"
     id="namedview24"
     showgrid="false"
     inkscape:zoom="2.8389944"
     inkscape:cx="-9.9321445"
     inkscape:cy="62.810815"
     inkscape:window-x="-8"
     inkscape:window-y="-8"
     inkscape:window-maximized="1"
     inkscape:current-layer="g20" />
  <metadata
     id="metadata2">
    <rdf:RDF>
      <cc:Work
         rdf:about="">
        <dc:format>image/svg+xml</dc:format>
        <dc:type
           rdf:resource="http://purl.org/dc/dcmitype/StillImage" />
        <dc:title />
      </cc:Work>
    </rdf:RDF>
  </metadata>
  <g
     transform="translate(-88.106 -130.44)"
     id="g20">
    <g
       transform="matrix(.079375 0 0 .079375 88.106 132.03)"
       fill="#9b9c72"
       id="g18"
       style="fill:#eeefae;fill-opacity:1">
      <g
         fill="#9b9c72"
         id="g16"
         style="fill:#eeefae;fill-opacity:1">
        <path
           d="m213.33 0c-117.82 0-213.33 95.513-213.33 213.33s95.513 213.33 213.33 213.33 213.33-95.513 213.33-213.33-95.512-213.33-213.33-213.33zm0 388.05c-96.495 0-174.72-78.225-174.72-174.72s78.225-174.72 174.72-174.72c96.446 0.117 174.6 78.273 174.72 174.72 0 96.496-78.224 174.72-174.72 174.72z"
           id="path14"
           style="fill:#eeefae;fill-opacity:1" />
      </g>
    </g>
    <g
       transform="matrix(.079375 0 0 .079375 89.694 130.44)"
       fill="#eeefae"
       id="g10"
       style="fill:#9b9c72;fill-opacity:1">
      <g
         fill="#eeefae"
         id="g8"
         style="fill:#9b9c72;fill-opacity:1">
        <path
           d="m213.33 0c-117.82 0-213.33 95.513-213.33 213.33s95.513 213.33 213.33 213.33 213.33-95.513 213.33-213.33-95.512-213.33-213.33-213.33zm0 388.05c-96.495 0-174.72-78.225-174.72-174.72s78.225-174.72 174.72-174.72c96.446 0.117 174.6 78.273 174.72 174.72 0 96.496-78.224 174.72-174.72 174.72z"
           id="path6"
           style="fill:#9b9c72;fill-opacity:1" />
      </g>
    </g>
    <g
       id="g3043"
       transform="translate(-0.26460749,0.26457874)">
      <path
         d="m 115.34891,142.48915 -3.83841,-3.8384 c -0.5329,-0.53291 -1.40489,-0.5133 -1.91185,0.0524 l -3.64683,4.07069 c -0.46647,0.52075 -0.4446,1.31566 0.0498,1.81003 l 3.41417,3.41418 c 0.49389,0.49391 1.28906,0.51593 1.81005,0.0498 l 4.07068,-3.64684 c 0.56501,-0.50628 0.58627,-1.378 0.0524,-1.91185 z m -7.46741,1.09484 c -0.13255,-0.13254 -0.13255,-0.34745 0,-0.48 l 2.47658,-2.47658 c 0.13254,-0.13251 0.34741,-0.13251 0.47996,0 0.13254,0.13255 0.13254,0.34746 0,0.48 l -2.47658,2.47658 c -0.13258,0.13255 -0.34742,0.13252 -0.47996,0 z m 1.09432,1.43988 c -0.13255,-0.13255 -0.13255,-0.34745 0,-0.47999 l 2.82214,-2.82216 c 0.13255,-0.1325 0.34742,-0.1325 0.47996,0 0.13255,0.13256 0.13255,0.34747 0,0.48001 l -2.82215,2.82214 c -0.13258,0.13251 -0.34741,0.13248 -0.47995,0 z m 4.39638,-1.38229 -2.47658,2.47657 c -0.0663,0.0663 -0.15313,0.0994 -0.23998,0.0994 -0.29964,0 -0.45443,-0.36495 -0.23997,-0.57936 l 2.47657,-2.47658 c 0.13254,-0.13251 0.34742,-0.13251 0.47996,0 0.13255,0.13251 0.13255,0.34745 0,0.47997 z m -6.22425,3.69016 -2.46278,2.46278 c 0.56798,0.568 0.49832,1.34451 0.0415,1.80135 l -4.47944,4.47984 c -0.487436,0.48664 -1.274349,0.48554 -1.75989,0 l -0.563374,-0.56337 c -0.484937,-0.48494 -0.484937,-1.27457 0,-1.75989 L 102.4038,149.273 c 0.44889,-0.44888 1.22128,-0.53864 1.80135,0.0415 l 2.46278,-2.46278 c 0.13236,-0.13236 0.34731,-0.13236 0.48004,0 0.13236,0.13274 0.13236,0.34768 0,0.48004 z"
         id="path2"
         style="fill:#9b9c72;fill-opacity:1;stroke-width:0.037709" />
      <path
         d="m 115.83673,142.00132 -3.8384,-3.8384 c -0.5329,-0.53291 -1.40489,-0.51329 -1.91185,0.0524 l -3.64683,4.0707 c -0.46647,0.52075 -0.4446,1.31565 0.0498,1.81002 l 3.41417,3.41418 c 0.49389,0.49391 1.28906,0.51594 1.81005,0.0498 l 4.07068,-3.64684 c 0.565,-0.50628 0.58627,-1.378 0.0524,-1.91185 z m -7.46741,1.09484 c -0.13254,-0.13254 -0.13254,-0.34745 0,-0.48 l 2.47658,-2.47658 c 0.13255,-0.13251 0.34742,-0.13251 0.47997,0 0.13254,0.13255 0.13254,0.34746 0,0.48001 l -2.47658,2.47657 c -0.13258,0.13255 -0.34742,0.13252 -0.47997,0 z m 1.09433,1.43988 c -0.13255,-0.13254 -0.13255,-0.34745 0,-0.47999 l 2.82214,-2.82215 c 0.13255,-0.13251 0.34742,-0.13251 0.47996,0 0.13254,0.13255 0.13254,0.34746 0,0.48 l -2.82215,2.82214 c -0.13258,0.13251 -0.34741,0.13248 -0.47995,0 z m 4.39638,-1.38229 -2.47658,2.47657 c -0.0663,0.0663 -0.15313,0.0994 -0.23998,0.0994 -0.29964,0 -0.45443,-0.36495 -0.23998,-0.57936 l 2.47658,-2.47658 c 0.13254,-0.13251 0.34741,-0.13251 0.47996,0 0.13255,0.13251 0.13255,0.34746 0,0.47997 z m -6.22425,3.69016 -2.46278,2.46278 c 0.56797,0.56801 0.49832,1.34451 0.0415,1.80136 l -4.47944,4.47983 c -0.48744,0.48664 -1.274352,0.48554 -1.759893,0 l -0.563374,-0.56337 c -0.484938,-0.48494 -0.484938,-1.27456 0,-1.75989 l 4.479837,-4.47945 c 0.44888,-0.44888 1.22128,-0.53863 1.80135,0.0415 l 2.46278,-2.46278 c 0.13236,-0.13236 0.34731,-0.13236 0.48004,0 0.13236,0.13274 0.13236,0.34768 0,0.48004 z"
         id="path2-4"
         style="fill:#eeefae;fill-opacity:1;stroke-width:0.0377089" />
    </g>
  </g>
</svg>
