<?xml version="1.0" encoding="UTF-8" standalone="no"?>
<svg
   xmlns:dc="http://purl.org/dc/elements/1.1/"
   xmlns:cc="http://creativecommons.org/ns#"
   xmlns:rdf="http://www.w3.org/1999/02/22-rdf-syntax-ns#"
   xmlns:svg="http://www.w3.org/2000/svg"
   xmlns="http://www.w3.org/2000/svg"
   xmlns:sodipodi="http://sodipodi.sourceforge.net/DTD/sodipodi-0.dtd"
   xmlns:inkscape="http://www.inkscape.org/namespaces/inkscape"
   width="19.112682"
   height="19.113386"
   version="1.1"
   viewBox="0 0 5.0568335 5.0570197"
   id="svg4"
   sodipodi:docname="discount.svg"
   inkscape:version="1.0.1 (3bc2e813f5, 2020-09-07)">
  <metadata
     id="metadata10">
    <rdf:RDF>
      <cc:Work
         rdf:about="">
        <dc:format>image/svg+xml</dc:format>
        <dc:type
           rdf:resource="http://purl.org/dc/dcmitype/StillImage" />
        <dc:title></dc:title>
      </cc:Work>
    </rdf:RDF>
  </metadata>
  <defs
     id="defs8" />
  <sodipodi:namedview
     pagecolor="#ffffff"
     bordercolor="#666666"
     borderopacity="1"
     objecttolerance="10"
     gridtolerance="10"
     guidetolerance="10"
     inkscape:pageopacity="0"
     inkscape:pageshadow="2"
     inkscape:window-width="1366"
     inkscape:window-height="705"
     id="namedview6"
     showgrid="false"
     inkscape:zoom="7.608469"
     inkscape:cx="21.333435"
     inkscape:cy="8.4981766"
     inkscape:window-x="-8"
     inkscape:window-y="-8"
     inkscape:window-maximized="1"
     inkscape:current-layer="svg4" />
  <path
     id="path2-0"
     style="fill:#ffffff;stroke-width:0.009877"
     d="M 1.1061307,0 C 1.0188967,0 0.94809876,0.070798 0.94809876,0.1580318 v 2.3704776 h -0.7901592 c -0.065109,0 -0.1232732,0.039501 -0.146978,0.09987 -0.023705,0.060368 -0.00821,0.1292736 0.039199,0.1735224 L 2.4206381,5.0143476 c 0.030342,0.028446 0.068903,0.042672 0.1077788,0.042672 0.038876,0 0.077437,-0.014226 0.1077788,-0.042672 L 5.006673,2.8019018 C 5.054083,2.7579688 5.069577,2.6890638 5.045872,2.6283794 5.022166,2.5680114 4.9636869,2.5285094 4.8988941,2.5285094 H 4.1087348 V 0.1580318 C 4.1087348,0.0707988 4.0379368,0 3.9507032,0 Z m 0.948191,0.6321275 c 0.2613847,0 0.4740955,0.2127107 0.4740955,0.4740954 0,0.2613847 -0.2127108,0.4740954 -0.4740955,0.4740954 -0.2613846,0 -0.4740955,-0.2127107 -0.4740955,-0.4740954 0,-0.2613847 0.2127109,-0.4740954 0.4740955,-0.4740954 z m 1.2653734,4.061e-4 c 0.035381,2.314e-4 0.070847,0.012207 0.1000238,0.036267 0.067006,0.055943 0.075852,0.1554892 0.019908,0.222811 L 1.8593087,2.7879935 c -0.030974,0.037296 -0.075854,0.056581 -0.121051,0.056581 -0.035715,0 -0.071749,-0.012018 -0.1011426,-0.036672 -0.067006,-0.055627 -0.07616,-0.1554971 -0.020217,-0.2225024 l 1.5803182,-1.896382 c 0.031646,-0.037691 0.076988,-0.056783 0.1224788,-0.0564845 z M 2.0543217,0.948192 c -0.087234,0 -0.1580318,0.070798 -0.1580318,0.1580321 0,0.087233 0.070798,0.1580318 0.1580318,0.1580318 0.087234,0 0.1580319,-0.070798 0.1580319,-0.1580318 0,-0.087234 -0.070798,-0.1580321 -0.1580319,-0.1580321 z m 0.9481909,0.9481911 c 0.2613846,0 0.4740955,0.212711 0.4740955,0.4740954 0,0.2613847 -0.2127109,0.4740957 -0.4740955,0.4740957 -0.2613845,0 -0.4740954,-0.212711 -0.4740954,-0.4740957 0,-0.2613844 0.2127109,-0.4740954 0.4740954,-0.4740954 z m 0,0.3160636 c -0.086917,0 -0.1580317,0.070798 -0.1580317,0.1580318 0,0.087234 0.071114,0.1580321 0.1580317,0.1580321 0.086918,0 0.1580318,-0.070798 0.1580318,-0.1580321 0,-0.087233 -0.071114,-0.1580318 -0.1580318,-0.1580318 z" />
</svg>
