<?xml version="1.0" encoding="UTF-8" standalone="no"?>
<svg
   xmlns:dc="http://purl.org/dc/elements/1.1/"
   xmlns:cc="http://creativecommons.org/ns#"
   xmlns:rdf="http://www.w3.org/1999/02/22-rdf-syntax-ns#"
   xmlns:svg="http://www.w3.org/2000/svg"
   xmlns="http://www.w3.org/2000/svg"
   xmlns:sodipodi="http://sodipodi.sourceforge.net/DTD/sodipodi-0.dtd"
   xmlns:inkscape="http://www.inkscape.org/namespaces/inkscape"
   width="50"
   height="50"
   viewBox="0 0 13.229166 13.229167"
   version="1.1"
   id="svg4170"
   inkscape:version="1.0.1 (3bc2e813f5, 2020-09-07)"
   sodipodi:docname="loading4.svg">
  <defs
     id="defs4164" />
  <sodipodi:namedview
     id="base"
     pagecolor="#ffffff"
     bordercolor="#666666"
     borderopacity="1.0"
     inkscape:pageopacity="0.0"
     inkscape:pageshadow="2"
     inkscape:zoom="5.6"
     inkscape:cx="59.669436"
     inkscape:cy="25.360006"
     inkscape:document-units="mm"
     inkscape:current-layer="layer1"
     inkscape:document-rotation="0"
     showgrid="false"
     inkscape:window-width="1350"
     inkscape:window-height="728"
     inkscape:window-x="0"
     inkscape:window-y="0"
     inkscape:window-maximized="0"
     units="px" />
  <metadata
     id="metadata4167">
    <rdf:RDF>
      <cc:Work
         rdf:about="">
        <dc:format>image/svg+xml</dc:format>
        <dc:type
           rdf:resource="http://purl.org/dc/dcmitype/StillImage" />
        <dc:title />
      </cc:Work>
    </rdf:RDF>
  </metadata>
  <g
     inkscape:label="Слой 1"
     inkscape:groupmode="layer"
     id="layer1"
     transform="translate(-53.664076,-93.350763)">
    <path
       id="path5781"
       d="m 65.938696,96.901999 c -0.0061,-0.003 -0.04639,-0.015 -0.116674,-0.0366 l -4.979499,-1.50503 c -2.013988,-0.60702 -3.881724,-1.169162 -3.990966,-1.201691 -0.09628,-0.0287 -0.206257,-0.07611 -0.306158,-0.0785 -0.08424,-0.0021 -0.162412,0.02726 -0.219712,0.126504 l -2.618713,4.535737 c -0.103198,0.17875 -0.01379,0.44989 0.199394,0.60531 l 1.544258,1.125371 6.94556,5.06248 c 0.638655,0.46562 1.40829,0.40864 1.718182,-0.12809 1.303411,-1.89969 4.310634,-5.443103 1.824297,-8.505461 z m -3.09257,7.912921 -8.084006,-5.891781 0.42902,-0.74309 8.084347,5.891201 z m 0.855111,-1.4811 -8.083998,-5.891781 0.429353,-0.74367 8.08368,5.892341 z m 0.855112,-1.4811 -8.08431,-5.891251 0.429353,-0.74366 8.08431,5.891261 z"
       inkscape:connector-curvature="0"
       sodipodi:nodetypes="cccccsscccccccccccccccccccc"
       style="fill:#eeefae;stroke-width:0.0135528;fill-opacity:1" />
  </g>
</svg>
