<?xml version="1.0" encoding="UTF-8" standalone="no"?>
<svg
   xmlns:dc="http://purl.org/dc/elements/1.1/"
   xmlns:cc="http://creativecommons.org/ns#"
   xmlns:rdf="http://www.w3.org/1999/02/22-rdf-syntax-ns#"
   xmlns:svg="http://www.w3.org/2000/svg"
   xmlns="http://www.w3.org/2000/svg"
   xmlns:sodipodi="http://sodipodi.sourceforge.net/DTD/sodipodi-0.dtd"
   xmlns:inkscape="http://www.inkscape.org/namespaces/inkscape"
   width="28.912024"
   height="28.333996"
   version="1.1"
   viewBox="0 0 28.912024 28.333996"
   xml:space="preserve"
   id="svg20"
   sodipodi:docname="menu6.svg"
   inkscape:version="1.0.1 (3bc2e813f5, 2020-09-07)"><metadata
   id="metadata26"><rdf:RDF><cc:Work
       rdf:about=""><dc:format>image/svg+xml</dc:format><dc:type
         rdf:resource="http://purl.org/dc/dcmitype/StillImage" /></cc:Work></rdf:RDF></metadata><defs
   id="defs24" /><sodipodi:namedview
   pagecolor="#ffffff"
   bordercolor="#666666"
   borderopacity="1"
   objecttolerance="10"
   gridtolerance="10"
   guidetolerance="10"
   inkscape:pageopacity="0"
   inkscape:pageshadow="2"
   inkscape:window-width="1366"
   inkscape:window-height="705"
   id="namedview22"
   showgrid="false"
   inkscape:zoom="3.8042345"
   inkscape:cx="-8.9714056"
   inkscape:cy="35.149037"
   inkscape:window-x="-8"
   inkscape:window-y="-8"
   inkscape:window-maximized="1"
   inkscape:current-layer="svg20"
   inkscape:document-rotation="0" />
<g
   transform="translate(-11.426415,2.8156665)"
   id="g18">
	
		
		
		
	<g
   transform="matrix(0.064824,0,0,0.064824,13.074,8.0903)"
   id="g16"><g
     transform="matrix(0.96128,0,0,0.96128,-41.809,-199.09)"
     id="g14"><g
       id="g12"><g
         fill="#ffffff"
         id="g10"><path
           transform="matrix(1.2305,0,0,1.1326,-12.084,16.24)"
           d="m 89.496,171.47 h 15.525 l -16.818,-46.121 -6.096,-16.713 -6.097,-16.72 -1.975,-5.438 1.975,-0.13 6.097,-0.407 6.096,-0.414 6.023,-0.407 13.413,36.799 6.096,16.712 2.406,6.592 3.69,10.136 2.407,6.585 3.47,9.526 H 138.69 L 128.334,143.069 V 45.388 l 19.435,5.641 v 120.44 h 12.193 v -129.6 l -8.795,-2.552 -13.851,-4.016 -17.485,-4.836 -2.129,-0.585 -1.561,0.414 -3.138,0.837 -8.762,2.545 -19.436,5.641 -8.795,2.552 v 33.043 l 6.097,-0.528 6.096,-0.529 V 51.03 l 19.436,-5.641 v 40.935 l -1.959,-5.373 -3.04,-8.339 -14.437,1.243 -6.096,0.529 -6.097,0.528 -14.769,1.284 -3.821,0.325 -0.211,0.017 -9.819,7.193 -16.323,11.966 -7.388,5.405 3.137,8.6 22.516,61.769 H 62.314 L 38.269,105.532 54.6,93.567 l 21.41,58.737 6.097,16.721 0.894,2.446 h 5.202 z"
           id="path2" /><path
           d="m 366.34,61.921 -10.331,-3.9005 -22.826,-8.6149 -3.5581,-1.3432 -10.457,-3.4894 -2.7044,-0.90188 -1.7146,0.32314 -8.9682,1.6567 -5.6356,1.1659 -23.894,4.9495 -10.811,2.2342 -0.86209,11.006 -14.839,189.16 -0.57875,7.4092 c 2.6369,-0.83316 5.1653,-1.8038 7.5961,-2.8913 2.7153,-1.2154 5.2823,-2.5875 7.6938,-4.0971 l 14.78,-188.42 23.894,-4.9495 -11.996,152.83 h 25.022 l 11.839,-150.88 22.826,8.6149 -11.163,142.27 h 22.091 l 33.529,-104.37 24.394,0.68606 -33.303,103.68 h 26.206 l 30.853,-96.048 20.228,13.643 -26.472,82.405 h 15.436 l 25.031,-77.916 3.3809,-10.516 -9.1539,-6.1745 -20.228,-13.643 -8.0856,-5.4487 -4.3611,-2.7044 -2.0087,-1.2443 -2.2342,-0.10731 -9.3794,-0.47023 -5.4885,-0.15674 -24.394,-0.68606 -11.036,-0.31349 -3.3809,10.507 -24.247,75.495 8.4582,-107.75 z"
           stroke-width="1.2057"
           id="path4" /><path
           d="m 249.34,245.96 c 1.634,0 3.251,-0.065 4.845,-0.171 2.073,-0.146 4.097,-0.415 6.096,-0.748 V 44.521 l -40.131,-11.583 -2.918,-0.845 -0.78,0.236 -40.123,11.99 v 159.25 h 12.192 V 53.039 l 19.435,-5.641 v 182.37 c 1.805,1.943 3.837,3.755 6.096,5.406 0.772,0.569 1.577,1.114 2.398,1.642 1.187,0.764 2.414,1.488 3.699,2.162 0.788,0.423 1.577,0.845 2.398,1.227 1.943,0.91 3.991,1.699 6.096,2.406 V 47.391 l 19.435,5.641 v 192.88 c 0.425,0.008 0.839,0.041 1.262,0.041 z"
           id="path6" /><path
           d="m 35.546,179.59 60.184,307.2 h 307.2 l 60.184,-307.2 z"
           id="path8" /></g></g></g></g>
</g>















</svg>
