<?xml version="1.0" encoding="UTF-8" standalone="no"?>
<svg
   xmlns:dc="http://purl.org/dc/elements/1.1/"
   xmlns:cc="http://creativecommons.org/ns#"
   xmlns:rdf="http://www.w3.org/1999/02/22-rdf-syntax-ns#"
   xmlns:svg="http://www.w3.org/2000/svg"
   xmlns="http://www.w3.org/2000/svg"
   xmlns:sodipodi="http://sodipodi.sourceforge.net/DTD/sodipodi-0.dtd"
   xmlns:inkscape="http://www.inkscape.org/namespaces/inkscape"
   width="44.346794"
   height="44.348423"
   version="1.1"
   viewBox="0 0 11.733275 11.733706"
   id="svg4"
   sodipodi:docname="menu1.svg"
   inkscape:version="1.0.1 (3bc2e813f5, 2020-09-07)">
  <metadata
     id="metadata10">
    <rdf:RDF>
      <cc:Work
         rdf:about="">
        <dc:format>image/svg+xml</dc:format>
        <dc:type
           rdf:resource="http://purl.org/dc/dcmitype/StillImage" />
        <dc:title />
      </cc:Work>
    </rdf:RDF>
  </metadata>
  <defs
     id="defs8" />
  <sodipodi:namedview
     pagecolor="#ffffff"
     bordercolor="#666666"
     borderopacity="1"
     objecttolerance="10"
     gridtolerance="10"
     guidetolerance="10"
     inkscape:pageopacity="0"
     inkscape:pageshadow="2"
     inkscape:window-width="1366"
     inkscape:window-height="705"
     id="namedview6"
     showgrid="false"
     inkscape:zoom="7.608469"
     inkscape:cx="33.950489"
     inkscape:cy="21.115695"
     inkscape:window-x="-8"
     inkscape:window-y="-8"
     inkscape:window-maximized="1"
     inkscape:current-layer="svg4"
     inkscape:document-rotation="0" />
  <path
     id="path2-0"
     style="fill:#ffffff;stroke-width:0.0229174"
     d="M 2.5665336,0 C 2.3641263,0 2.1998552,0.1642712 2.1998552,0.3666782 V 5.866852 H 0.36646386 c -0.1510711,0 -0.2860284,0.091653 -0.3410302,0.2317264 -0.055002,0.1400707 -0.019049,0.2999511 0.090953,0.4026207 L 5.6165603,11.634695 c 0.070402,0.066 0.1598744,0.09901 0.2500771,0.09901 0.090203,0 0.1796756,-0.03301 0.2500771,-0.09901 L 11.616887,6.5011991 C 11.726892,6.3992622 11.762842,6.2393833 11.70784,6.0985784 11.652835,5.9585077 11.517147,5.866852 11.36681,5.866852 H 9.5334185 V 0.3666782 C 9.5334185,0.1642731 9.3691473,0 9.1667408,0 Z m 2.2000695,1.4667133 c 0.6064859,0 1.1000347,0.4935486 1.1000347,1.1000345 0,0.6064859 -0.4935488,1.1000345 -1.1000347,1.1000345 -0.6064857,0 -1.1000347,-0.4935486 -1.1000347,-1.1000345 0,-0.6064859 0.493549,-1.1000345 1.1000347,-1.1000345 z m 2.9360217,9.423e-4 c 0.082094,5.369e-4 0.1643849,0.028324 0.2320833,0.08415 0.1554727,0.1298035 0.1759979,0.3607786 0.046192,0.5169841 L 4.3141181,6.468928 C 4.2422497,6.555465 4.1381156,6.6002118 4.0332458,6.6002118 3.950377,6.6002118 3.866768,6.5723268 3.7985666,6.5151228 3.6430938,6.3860522 3.621854,6.1543255 3.7516575,5.9988544 L 7.4184396,1.5987155 C 7.4918676,1.5112615 7.5970734,1.466963 7.7026248,1.4676556 Z M 4.7666031,2.2000718 c -0.2024074,0 -0.3666782,0.1642712 -0.3666782,0.3666788 0,0.2024051 0.1642713,0.3666782 0.3666782,0.3666782 0.2024074,0 0.3666784,-0.1642713 0.3666784,-0.3666782 0,-0.2024074 -0.1642712,-0.3666788 -0.3666784,-0.3666788 z m 2.2000692,2.2000696 c 0.6064857,0 1.1000347,0.4935493 1.1000347,1.1000345 0,0.6064859 -0.493549,1.1000352 -1.1000347,1.1000352 -0.6064854,0 -1.1000345,-0.4935493 -1.1000345,-1.1000352 0,-0.6064852 0.4935491,-1.1000345 1.1000345,-1.1000345 z m 0,0.7333563 c -0.2016718,0 -0.3666779,0.1642713 -0.3666779,0.3666782 0,0.2024074 0.1650044,0.3666789 0.3666779,0.3666789 0.2016742,0 0.3666782,-0.1642713 0.3666782,-0.3666789 0,-0.2024051 -0.1650045,-0.3666782 -0.3666782,-0.3666782 z" />
</svg>
