<?xml version="1.0" encoding="UTF-8" standalone="no"?>
<svg
   xmlns:dc="http://purl.org/dc/elements/1.1/"
   xmlns:cc="http://creativecommons.org/ns#"
   xmlns:rdf="http://www.w3.org/1999/02/22-rdf-syntax-ns#"
   xmlns:svg="http://www.w3.org/2000/svg"
   xmlns="http://www.w3.org/2000/svg"
   xmlns:sodipodi="http://sodipodi.sourceforge.net/DTD/sodipodi-0.dtd"
   xmlns:inkscape="http://www.inkscape.org/namespaces/inkscape"
   version="1.1"
   id="Capa_1"
   x="0px"
   y="0px"
   viewBox="0 0 32.000001 23.603551"
   xml:space="preserve"
   sodipodi:docname="menu5.svg"
   width="32"
   height="23.60355"
   inkscape:version="1.0.1 (3bc2e813f5, 2020-09-07)"><metadata
   id="metadata1421"><rdf:RDF><cc:Work
       rdf:about=""><dc:format>image/svg+xml</dc:format><dc:type
         rdf:resource="http://purl.org/dc/dcmitype/StillImage" /><dc:title /></cc:Work></rdf:RDF></metadata><defs
   id="defs1419" /><sodipodi:namedview
   pagecolor="#ffffff"
   bordercolor="#666666"
   borderopacity="1"
   objecttolerance="10"
   gridtolerance="10"
   guidetolerance="10"
   inkscape:pageopacity="0"
   inkscape:pageshadow="2"
   inkscape:window-width="1366"
   inkscape:window-height="705"
   id="namedview1417"
   showgrid="false"
   inkscape:zoom="3.2047397"
   inkscape:cx="21.391953"
   inkscape:cy="55.807333"
   inkscape:window-x="-8"
   inkscape:window-y="-8"
   inkscape:window-maximized="1"
   inkscape:current-layer="g5785"
   inkscape:document-rotation="0" />
<g
   id="g1384"
   transform="translate(-9.8825763,0.45595445)">
	<g
   id="g1382">
		
		
		
	<g
   id="g5842"
   transform="matrix(0.041648,0,0,0.041648,9.1215539,-4.5478024)"><g
     id="g5785">
	<path
   id="path5781"
   d="m 610.36867,98.248366 c -0.39257,0.0615 -2.91762,0.62648 -7.30471,1.63173 L 293.02819,172.49969 c -125.3438,29.46185 -241.560998,56.82679 -248.347722,58.44587 -5.981983,1.42678 -13.263739,2.27832 -18.632627,5.20577 -4.528859,2.46894 -7.775118,6.41674 -7.775118,13.43054 v 320.59785 c 0,12.6336 13.035044,24.27204 29.096661,25.98603 l 116.307376,12.39344 523.14095,55.79298 c 48.10718,5.13689 87.16325,-21.44031 87.16325,-59.37882 C 784.93444,464.37458 835.90136,184.49152 610.36867,98.248366 Z M 688.61185,612.37883 79.737782,547.46715 V 494.9442 l 608.874068,64.87051 z m 0,-104.68733 -608.874068,-64.91248 v -52.5641 l 608.874068,64.95197 z m 0,-104.68729 -608.874068,-64.8747 v -52.56408 l 608.874068,64.87469 z"
   inkscape:connector-curvature="0"
   sodipodi:nodetypes="cccccsscccccccccccccccccccc"
   style="fill:#ffffff;stroke-width:0.829605" />
	
</g><g
     id="g5787">
</g><g
     id="g5789">
</g><g
     id="g5791">
</g><g
     id="g5793">
</g><g
     id="g5795">
</g><g
     id="g5797">
</g><g
     id="g5799">
</g><g
     id="g5801">
</g><g
     id="g5803">
</g><g
     id="g5805">
</g><g
     id="g5807">
</g><g
     id="g5809">
</g><g
     id="g5811">
</g><g
     id="g5813">
</g><g
     id="g5815">
</g></g></g>
</g>
<g
   id="g1386"
   transform="translate(-9.8825763,0.45595445)">
</g>
<g
   id="g1388"
   transform="translate(-9.8825763,0.45595445)">
</g>
<g
   id="g1390"
   transform="translate(-9.8825763,0.45595445)">
</g>
<g
   id="g1392"
   transform="translate(-9.8825763,0.45595445)">
</g>
<g
   id="g1394"
   transform="translate(-9.8825763,0.45595445)">
</g>
<g
   id="g1396"
   transform="translate(-9.8825763,0.45595445)">
</g>
<g
   id="g1398"
   transform="translate(-9.8825763,0.45595445)">
</g>
<g
   id="g1400"
   transform="translate(-9.8825763,0.45595445)">
</g>
<g
   id="g1402"
   transform="translate(-9.8825763,0.45595445)">
</g>
<g
   id="g1404"
   transform="translate(-9.8825763,0.45595445)">
</g>
<g
   id="g1406"
   transform="translate(-9.8825763,0.45595445)">
</g>
<g
   id="g1408"
   transform="translate(-9.8825763,0.45595445)">
</g>
<g
   id="g1410"
   transform="translate(-9.8825763,0.45595445)">
</g>
<g
   id="g1412"
   transform="translate(-9.8825763,0.45595445)">
</g>
<g
   id="g1414"
   transform="translate(-9.8825763,0.45595445)">
</g>
</svg>
