<?xml version="1.0" encoding="UTF-8" standalone="no"?>
<svg
   xmlns:dc="http://purl.org/dc/elements/1.1/"
   xmlns:cc="http://creativecommons.org/ns#"
   xmlns:rdf="http://www.w3.org/1999/02/22-rdf-syntax-ns#"
   xmlns:svg="http://www.w3.org/2000/svg"
   xmlns="http://www.w3.org/2000/svg"
   xmlns:sodipodi="http://sodipodi.sourceforge.net/DTD/sodipodi-0.dtd"
   xmlns:inkscape="http://www.inkscape.org/namespaces/inkscape"
   width="22.527515"
   height="14.389344"
   version="1.1"
   viewBox="0 0 5.96033 3.8071327"
   id="svg4"
   sodipodi:docname="sauce.svg"
   inkscape:version="1.0.1 (3bc2e813f5, 2020-09-07)">
  <metadata
     id="metadata10">
    <rdf:RDF>
      <cc:Work
         rdf:about="">
        <dc:format>image/svg+xml</dc:format>
        <dc:type
           rdf:resource="http://purl.org/dc/dcmitype/StillImage" />
      </cc:Work>
    </rdf:RDF>
  </metadata>
  <defs
     id="defs8" />
  <sodipodi:namedview
     pagecolor="#ffffff"
     bordercolor="#666666"
     borderopacity="1"
     objecttolerance="10"
     gridtolerance="10"
     guidetolerance="10"
     inkscape:pageopacity="0"
     inkscape:pageshadow="2"
     inkscape:window-width="1366"
     inkscape:window-height="705"
     id="namedview6"
     showgrid="false"
     inkscape:zoom="2.69"
     inkscape:cx="-26.647255"
     inkscape:cy="21.461707"
     inkscape:window-x="-8"
     inkscape:window-y="-8"
     inkscape:window-maximized="1"
     inkscape:current-layer="svg4" />
  <path
     d="m 0.47983,0 h 5.0007 c 0.2643,0 0.4798,0.21497 0.4798,0.47927 0,0.20978 -0.13553,0.38806 -0.32356,0.45287 -0.4202,1.5786 -1.1807,2.2199 -1.2135,2.247 -0.029846,0.024654 -0.067769,0.53232 -0.10609,0.53734 -0.94492,0.12356 -1.85,0.11815 -2.6735,0 C 1.605415,3.71128 1.567431,3.20372 1.53759,3.17914 1.504772,3.152127 0.74426,2.51079 0.32409,0.93214 0.13606,0.867361 0,0.68905 0,0.47927 0,0.21497 0.2155,0 0.4798,0 Z m 0,0.33306 c -0.08062,0 -0.14621,0.065566 -0.14621,0.14621 0,0.080515 0.065593,0.14621 0.14621,0.14621 h 5.0007 c 0.080603,0 0.14621,-0.065654 0.14621,-0.14621 0,-0.08069 -0.065601,-0.14621 -0.14621,-0.14621 z"
     fill="#ffffff"
     style="paint-order:normal"
     id="path2" />
</svg>
