<?xml version="1.0" encoding="UTF-8"?>
<svg width="32.001" height="17.952" version="1.1" viewBox="0 0 8.4667 4.7499" xmlns="http://www.w3.org/2000/svg" xmlns:cc="http://creativecommons.org/ns#" xmlns:dc="http://purl.org/dc/elements/1.1/" xmlns:rdf="http://www.w3.org/1999/02/22-rdf-syntax-ns#">
 <metadata>
  <rdf:RDF>
   <cc:Work rdf:about="">
    <dc:format>image/svg+xml</dc:format>
    <dc:type rdf:resource="http://purl.org/dc/dcmitype/StillImage"/>
    <dc:title/>
   </cc:Work>
  </rdf:RDF>
 </metadata>
 <g transform="translate(25.356 -137.35)">
  <g transform="translate(-.049428 -2.5105)">
   <path d="m-22.512 140.51c-0.10463 5e-3 -0.20035 0.0121-0.30076 0.0181h-1e-3c-0.06452 4e-5 -0.12853 4e-3 -0.1912 0.0114-0.25024 0.0172-0.48936 0.0366-0.7028 0.0605-0.3628 0.0405-0.65369 0.0896-0.86506 0.14573-0.14342 0.038-0.2534 0.0787-0.34623 0.12971-0.34934 0.19077-0.38706 0.48986-0.38706 0.60978 0 9e-3 3.25e-4 0.0191 1e-3 0.0305 0.01107 1.4236 0.98641 2.1263 2.3937 2.7099v0.0605c0 0.1802 0.14605 0.32659 0.3266 0.32659h3.0241c0.18055 0 0.3266-0.14639 0.3266-0.32659v-0.0605c1.4076-0.58355 2.3826-1.2858 2.3942-2.7099 3.72e-4 -0.0109 5.29e-4 -0.0212 5.29e-4 -0.0305-1.71e-4 -0.11992-0.03788-0.41901-0.38706-0.60978-0.09283-0.0506-0.20282-0.0917-0.34623-0.12971-0.21138-0.0561-0.50227-0.10503-0.86506-0.14573-0.21341-0.0238-0.45307-0.0433-0.70332-0.0605-0.06201-7e-3 -0.12533-0.0113-0.18914-0.0114-1e-3 -6e-5 -0.0021 6e-5 -0.0031 0-0.10048-6e-3 -0.19604-0.0132-0.30076-0.0181-0.72954-0.84819-2.0474-0.87741-2.8779 1e-5zm2.5528 0.37982c0.06836-0.0113 0.13695-0.017 0.20619-0.0171 0.72231-4e-5 1.2904 0.12518 1.2904 0.84749l-0.0026 6e-3 0.0021 0.0429c-1.7389 0.16402-3.4922 0.14646-5.255 0l0.0021-0.0429-0.0026-6e-3c-3.9e-5 -0.72232 0.60319-0.84753 1.3255-0.8475 0.06924 9e-5 0.13835 6e-3 0.20671 0.0171 0.66727-0.78297 1.6142-0.81046 2.2273 0z" fill="#fff" stroke-width=".5"/>
  </g>
 </g>
</svg>
