<?xml version="1.0" encoding="UTF-8" standalone="no"?>
<svg
   xmlns:dc="http://purl.org/dc/elements/1.1/"
   xmlns:cc="http://creativecommons.org/ns#"
   xmlns:rdf="http://www.w3.org/1999/02/22-rdf-syntax-ns#"
   xmlns:svg="http://www.w3.org/2000/svg"
   xmlns="http://www.w3.org/2000/svg"
   xmlns:sodipodi="http://sodipodi.sourceforge.net/DTD/sodipodi-0.dtd"
   xmlns:inkscape="http://www.inkscape.org/namespaces/inkscape"
   version="1.1"
   id="Capa_1"
   x="0px"
   y="0px"
   viewBox="0 0 31.99947 18.826224"
   xml:space="preserve"
   sodipodi:docname="menu6.svg"
   width="31.99947"
   height="18.826223"
   inkscape:version="1.0.1 (3bc2e813f5, 2020-09-07)"><metadata
   id="metadata1421"><rdf:RDF><cc:Work
       rdf:about=""><dc:format>image/svg+xml</dc:format><dc:type
         rdf:resource="http://purl.org/dc/dcmitype/StillImage" /><dc:title /></cc:Work></rdf:RDF></metadata><defs
   id="defs1419" /><sodipodi:namedview
   pagecolor="#ffffff"
   bordercolor="#666666"
   borderopacity="1"
   objecttolerance="10"
   gridtolerance="10"
   guidetolerance="10"
   inkscape:pageopacity="0"
   inkscape:pageshadow="2"
   inkscape:window-width="1366"
   inkscape:window-height="705"
   id="namedview1417"
   showgrid="false"
   inkscape:zoom="3.2047397"
   inkscape:cx="-25.820472"
   inkscape:cy="26.753277"
   inkscape:window-x="-8"
   inkscape:window-y="-8"
   inkscape:window-maximized="1"
   inkscape:current-layer="g5779"
   inkscape:document-rotation="0" />
<g
   id="g1384"
   transform="translate(-11.882842,-3.932709)">
	<g
   id="g1382">
		
		
		
	<g
   id="g5779"
   transform="matrix(0.06482366,0,0,0.06482366,13.074294,8.0902673)"
   style="fill:#000000"><path
     style="fill:#ffffff;stroke-width:1"
     d="m 190.20883,-64.136433 c -34.83401,10e-4 -208.55672,2.764083 -208.58873,57.5780846 v 0.0309 C -12.775943,82.421438 32.074888,126.85764 77.975257,189.1356 c 0,30.691 61.087093,37.15006 112.354083,37.15006 51.244,0 112.35408,-6.45906 112.35408,-37.15006 5.77325,-4.99903 28.69719,-30.54704 49.20199,-59.74743 0.95505,0.0231 1.82777,0.0602 3.19377,0.0602 18.57899,0 64.58026,-3.32082 90.81126,-34.076832 33.589,-39.395002 39.13452,-87.9502964 12.65453,-110.546296 -8.533,-7.278001 -19.5766,-11.117913 -31.93762,-11.117913 -10.01399,0 -20.68474,2.68394 -31.27473,7.411943 -24.095,-42.878718 -173.1318,-45.255705 -205.12379,-45.255705 z m -0.0309,33.624882 c 95.18699,0 153.77048,14.223333 171.16749,23.9833326 C 343.94941,3.2227916 285.36592,17.455124 190.17793,17.455124 94.968935,17.455124 36.438578,3.2227916 19.040579,-6.5282184 36.439566,-16.288218 94.968935,-30.511551 190.17793,-30.511551 Z M 426.60659,7.3315016 c 4.315,0 7.72363,1.029262 10.12362,3.0732524 10.244,8.722 5.40739,37.585092 -16.39062,63.152094 -11.379,13.32 -30.63045,18.66171 -45.82745,20.8197 12.033,-23.23699 20.01032,-48.986702 23.04931,-76.288694 10.979,-7.32001 21.49415,-10.7563524 29.04514,-10.7563524 z"
     id="cup-3"
     inkscape:connector-curvature="0"
     sodipodi:nodetypes="ccccscccccsccscscssccccs" /><g
     id="g5726"
     style="fill:#000000">
</g><g
     id="g5728"
     style="fill:#000000">
</g><g
     id="g5730"
     style="fill:#000000">
</g><g
     id="g5732"
     style="fill:#000000">
</g><g
     id="g5734"
     style="fill:#000000">
</g><g
     id="g5736"
     style="fill:#000000">
</g><g
     id="g5738"
     style="fill:#000000">
</g><g
     id="g5740"
     style="fill:#000000">
</g><g
     id="g5742"
     style="fill:#000000">
</g><g
     id="g5744"
     style="fill:#000000">
</g><g
     id="g5746"
     style="fill:#000000">
</g><g
     id="g5748"
     style="fill:#000000">
</g><g
     id="g5750"
     style="fill:#000000">
</g><g
     id="g5752"
     style="fill:#000000">
</g><g
     id="g5754"
     style="fill:#000000">
</g></g></g>
</g>
<g
   id="g1386"
   transform="translate(-11.882842,-3.932709)">
</g>
<g
   id="g1388"
   transform="translate(-11.882842,-3.932709)">
</g>
<g
   id="g1390"
   transform="translate(-11.882842,-3.932709)">
</g>
<g
   id="g1392"
   transform="translate(-11.882842,-3.932709)">
</g>
<g
   id="g1394"
   transform="translate(-11.882842,-3.932709)">
</g>
<g
   id="g1396"
   transform="translate(-11.882842,-3.932709)">
</g>
<g
   id="g1398"
   transform="translate(-11.882842,-3.932709)">
</g>
<g
   id="g1400"
   transform="translate(-11.882842,-3.932709)">
</g>
<g
   id="g1402"
   transform="translate(-11.882842,-3.932709)">
</g>
<g
   id="g1404"
   transform="translate(-11.882842,-3.932709)">
</g>
<g
   id="g1406"
   transform="translate(-11.882842,-3.932709)">
</g>
<g
   id="g1408"
   transform="translate(-11.882842,-3.932709)">
</g>
<g
   id="g1410"
   transform="translate(-11.882842,-3.932709)">
</g>
<g
   id="g1412"
   transform="translate(-11.882842,-3.932709)">
</g>
<g
   id="g1414"
   transform="translate(-11.882842,-3.932709)">
</g>
</svg>
