<?xml version="1.0" encoding="UTF-8" standalone="no"?>
<svg
   xmlns:dc="http://purl.org/dc/elements/1.1/"
   xmlns:cc="http://creativecommons.org/ns#"
   xmlns:rdf="http://www.w3.org/1999/02/22-rdf-syntax-ns#"
   xmlns:svg="http://www.w3.org/2000/svg"
   xmlns="http://www.w3.org/2000/svg"
   xmlns:sodipodi="http://sodipodi.sourceforge.net/DTD/sodipodi-0.dtd"
   xmlns:inkscape="http://www.inkscape.org/namespaces/inkscape"
   width="31.151258"
   height="23.871084"
   version="1.1"
   viewBox="0 0 8.242 6.3158115"
   id="svg8"
   sodipodi:docname="menu2.svg"
   inkscape:version="1.0.1 (3bc2e813f5, 2020-09-07)">
  <metadata
     id="metadata14">
    <rdf:RDF>
      <cc:Work
         rdf:about="">
        <dc:format>image/svg+xml</dc:format>
        <dc:type
           rdf:resource="http://purl.org/dc/dcmitype/StillImage" />
      </cc:Work>
    </rdf:RDF>
  </metadata>
  <defs
     id="defs12" />
  <sodipodi:namedview
     pagecolor="#ffffff"
     bordercolor="#666666"
     borderopacity="1"
     objecttolerance="10"
     gridtolerance="10"
     guidetolerance="10"
     inkscape:pageopacity="0"
     inkscape:pageshadow="2"
     inkscape:window-width="1366"
     inkscape:window-height="705"
     id="namedview10"
     showgrid="false"
     inkscape:zoom="3.8042345"
     inkscape:cx="-23.71103"
     inkscape:cy="38.626486"
     inkscape:window-x="-8"
     inkscape:window-y="-8"
     inkscape:window-maximized="1"
     inkscape:current-layer="svg8"
     inkscape:document-rotation="0" />
  <g
     transform="translate(25.2438,-135.3455)"
     id="g6">
    <g
       transform="matrix(0.26458,0,0,0.26458,-28.822,130.59)"
       id="g2" />
    <path
       d="m -24.213,137.86 c 0.60412,-0.26047 1.1097,-0.69233 1.4627,-1.2471 0.47704,-0.7481 1.5215,-1.2674 2.7353,-1.2674 1.6642,0 3.0132,0.97583 3.0132,2.1793 l -0.0111,1.796 c -0.22981,2.6382 -5.6273,2.3294 -6.339,2.3294 -1.0453,0 -1.8919,-0.57481 -1.8919,-1.2833 v -1.6216 c 0,-0.34551 0.50323,-0.65775 1.0308,-0.88521 z m 1.0632,0.12513 1.0133,1.4025 c 0.43519,-0.009 0.96696,-0.0362 1.5113,-0.10245 l -1.6247,-2.2559 c -0.24679,0.37012 -0.55026,0.69219 -0.89986,0.95586 z m 2.7625,-1.9708 c -0.48926,0.0516 -0.93398,0.20527 -1.2825,0.43207 l 1.9379,2.6907 c 0.4707,-0.10273 0.91296,-0.24581 1.2681,-0.44349 z m 1.0306,0.0439 1.5097,2.1029 c 0.12428,-0.18393 0.19617,-0.39399 0.19617,-0.63601 0,-0.68251 -0.73293,-1.2769 -1.7059,-1.4669 z m -5.1704,2.8696 c 0.15796,0.22348 0.58301,0.45251 1.175,0.45251 0.04978,0 0.12201,0.002 0.2112,0.003 l -0.7074,-0.97908 c -0.03611,0.0168 -0.07119,0.0355 -0.10792,0.0514 -0.2787,0.12019 -0.44512,0.22112 -0.54155,0.29163 -0.05733,0.0421 -0.0705,0.12232 -0.0293,0.1804 z"
       fill="#ffffff"
       stroke-width="0.017182"
       id="path4" />
  </g>
</svg>
