<?xml version="1.0" encoding="UTF-8" standalone="no"?>
<svg
   xmlns:dc="http://purl.org/dc/elements/1.1/"
   xmlns:cc="http://creativecommons.org/ns#"
   xmlns:rdf="http://www.w3.org/1999/02/22-rdf-syntax-ns#"
   xmlns:svg="http://www.w3.org/2000/svg"
   xmlns="http://www.w3.org/2000/svg"
   xmlns:sodipodi="http://sodipodi.sourceforge.net/DTD/sodipodi-0.dtd"
   xmlns:inkscape="http://www.inkscape.org/namespaces/inkscape"
   width="27.630619"
   height="21.444906"
   version="1.1"
   viewBox="0 0 7.3105092 5.6738933"
   id="svg832"
   sodipodi:docname="menu1.svg"
   inkscape:version="1.0.1 (3bc2e813f5, 2020-09-07)">
  <metadata
     id="metadata838">
    <rdf:RDF>
      <cc:Work
         rdf:about="">
        <dc:format>image/svg+xml</dc:format>
        <dc:type
           rdf:resource="http://purl.org/dc/dcmitype/StillImage" />
        <dc:title />
      </cc:Work>
    </rdf:RDF>
  </metadata>
  <defs
     id="defs836" />
  <sodipodi:namedview
     pagecolor="#ffffff"
     bordercolor="#666666"
     borderopacity="1"
     objecttolerance="10"
     gridtolerance="10"
     guidetolerance="10"
     inkscape:pageopacity="0"
     inkscape:pageshadow="2"
     inkscape:window-width="1366"
     inkscape:window-height="705"
     id="namedview834"
     showgrid="false"
     inkscape:zoom="4.72"
     inkscape:cx="44.762095"
     inkscape:cy="-4.8111339"
     inkscape:window-x="-8"
     inkscape:window-y="-8"
     inkscape:window-maximized="1"
     inkscape:current-layer="svg832"
     inkscape:document-rotation="0" />
  <g
     id="g1555"
     transform="matrix(0.0280497,0,0,0.0280497,0,-6.0413444)"
     style="fill:#ffffff">
    <g
       id="g1495"
       style="fill:#ffffff">
      <path
         id="path1485"
         d="m 11.796,306.42 h 237.037 c 1.668,0 3.26,-0.711 4.381,-1.947 1.121,-1.236 1.67,-2.887 1.51,-4.548 -4.563,-47.249 -58.519,-84.545 -124.41,-84.545 -65.891,0 -119.847,37.297 -124.409,84.546 -0.161,1.662 0.385,3.315 1.507,4.552 1.121,1.237 2.714,1.942 4.384,1.942 z"
         inkscape:connector-curvature="0"
         style="fill:#ffffff" />
      <path
         id="path1487"
         d="M 248.832,364.24 H 11.796 c -1.67,0 -3.262,0.706 -4.384,1.942 -1.122,1.237 -1.667,2.891 -1.507,4.553 1.243,12.86 6.148,24.982 13.955,35.816 5.03,6.979 13.114,11.109 21.718,11.109 H 219.05 c 8.59,0 16.695,-4.14 21.717,-11.109 7.807,-10.834 12.712,-22.956 13.955,-35.816 0.16,-1.661 -0.388,-3.312 -1.51,-4.548 -1.122,-1.236 -2.711,-1.947 -4.38,-1.947 z"
         inkscape:connector-curvature="0"
         style="fill:#ffffff" />
      <path
         id="path1489"
         d="M 245.744,320.604 H 14.884 C 6.664,320.604 0,327.267 0,335.487 c 0,8.22 6.664,14.883 14.884,14.883 h 230.86 c 8.22,0 14.883,-6.664 14.883,-14.883 0,-8.22 -6.664,-14.883 -14.883,-14.883 z"
         inkscape:connector-curvature="0"
         style="fill:#ffffff" />
    </g>
    <g
       id="g1497"
       style="fill:#ffffff" />
    <g
       id="g1499"
       style="fill:#ffffff" />
    <g
       id="g1501"
       style="fill:#ffffff" />
    <g
       id="g1503"
       style="fill:#ffffff" />
    <g
       id="g1505"
       style="fill:#ffffff" />
    <g
       id="g1507"
       style="fill:#ffffff" />
    <g
       id="g1509"
       style="fill:#ffffff" />
    <g
       id="g1511"
       style="fill:#ffffff" />
    <g
       id="g1513"
       style="fill:#ffffff" />
    <g
       id="g1515"
       style="fill:#ffffff" />
    <g
       id="g1517"
       style="fill:#ffffff" />
    <g
       id="g1519"
       style="fill:#ffffff" />
    <g
       id="g1521"
       style="fill:#ffffff" />
    <g
       id="g1523"
       style="fill:#ffffff" />
    <g
       id="g1525"
       style="fill:#ffffff" />
  </g>
</svg>
