<?xml version="1.0" encoding="UTF-8"?>
<svg width="360" height="64.491" version="1.1" viewBox="0 0 360 64.491" xml:space="preserve" xmlns="http://www.w3.org/2000/svg" xmlns:cc="http://creativecommons.org/ns#" xmlns:dc="http://purl.org/dc/elements/1.1/" xmlns:rdf="http://www.w3.org/1999/02/22-rdf-syntax-ns#" xmlns:xlink="http://www.w3.org/1999/xlink"><metadata><rdf:RDF><cc:Work rdf:about=""><dc:format>image/svg+xml</dc:format><dc:type rdf:resource="http://purl.org/dc/dcmitype/StillImage"/><dc:title/></cc:Work></rdf:RDF></metadata><defs>
	

		
		
		
	





























<linearGradient id="linearGradient860-1-9" x1="259.46" x2="259.46" y1="281.58" y2="228.48" gradientTransform="matrix(1 0 0 .9912 -70.73 449.26)" gradientUnits="userSpaceOnUse"><stop stop-color="#3a3f4b" offset="0"/><stop offset="1"/></linearGradient><linearGradient id="linearGradient1166" x1="259.46" x2="259.41" y1="228.48" y2="281.19" gradientTransform="translate(-70.682 447.17)" gradientUnits="userSpaceOnUse"><stop offset="0"/><stop stop-color="#3a3f4b" offset="1"/></linearGradient></defs>
















<g transform="translate(-29.171 -675.58)"><ellipse cx="186.77" cy="705.76" rx="23.247" ry="22.671" fill="#08090b" stroke-opacity="0"/><g fill="#3a3f4b"><path d="m258.67 728.69h-12.352q-3.2686 0-5.5739-1.9612l-5.6083-4.8858q-2.6837-2.2364-2.6837-6.0556v-7.5351q-0.13758-3.6816 3.0278-6.3997l5.0578-4.3697q2.4429-1.9956 5.2298-1.9956h12.971q1.2042 0 2.03 0.86019 0.86017 0.82577 0.86017 2.03 0 1.2386-0.86017 2.0644-0.82577 0.82576-2.03 0.82576h-12.421q-1.1698 0-2.2365 0.929l-4.6449 3.9568q-1.1354 0.9634-1.1354 2.5805v7.0534q0 1.1354 0.89459 1.9268l5.0922 4.3353q0.9634 0.86017 2.5461 0.86017h11.836q1.1698 0 2.03 0.86017 0.86017 0.82577 0.86017 2.03 0 1.2042-0.86017 2.0644-0.82577 0.82576-2.03 0.82576z"/><path d="m283.54 707.84h11.32q0.92898 0 2.6838 0.41289l-0.0689-4.0944q0-1.2042-0.86018-2.03-0.82576-0.86019-2.03-0.86019h-10.976q-1.1698 0-2.03-0.86017t-0.86017-2.03q0-1.2042 0.82576-2.03 0.86017-0.86019 2.0644-0.86019h10.976q3.5783 0 6.09 2.5117 2.5461 2.5117 2.6493 6.1588l0.72254 21.642q0 1.2042-0.86017 2.0644-0.86017 0.82576-2.03 0.82576-1.2387 0-2.0988-0.82576-0.86017-0.86017-0.86017-2.0644l-4.8858 2.8902h-9.7716q-3.6471 0-6.1932-2.5461-2.5461-2.5461-2.5461-6.1932v-3.3719q0-3.6127 2.5461-6.1588 2.5805-2.5805 6.1932-2.5805zm14.451 11.251-0.17193-2.4429q-0.0343-1.2386-0.86017-2.0644-0.82577-0.82577-2.03-0.82577h-11.389q-1.2042 0-2.0644 0.86017-0.82577 0.82577-0.82577 2.03v3.2343q0 1.1698 0.86017 2.03 0.86019 0.86019 2.03 0.86019h8.1544z"/><path d="m330.68 701.27v24.532q0 1.2042-0.86017 2.0644-0.86017 0.82576-2.03 0.82576-1.2387 0-2.0988-0.82576-0.86017-0.86017-0.86017-2.0644v-24.532h-2.959q-1.2042 0-2.0644-0.86017-0.82577-0.86017-0.82577-2.03 0-1.1354 0.75694-1.9956 0.79136-0.8946 2.1332-0.8946h3.0278v-2.2364q0-4.4385 3.0278-7.3631 3.0622-2.9246 7.6039-2.9246h6.7782q1.2042 0 2.03 0.86017 0.86017 0.86017 0.86017 2.0988 0 1.1698-0.86017 2.03t-2.03 0.86017h-6.7782q-2.0644 0-3.4407 1.2387-1.3419 1.2386-1.3419 3.1998v2.2364h5.7804q1.1698-0.0343 2.03 0.82577 0.86017 0.86019 0.86017 2.0644 0 1.1698-0.86017 2.03t-2.03 0.86017z"/><path d="m389.17 706.36v6.9846q0 1.1698-0.86019 2.03-0.86017 0.86017-2.03 0.86017h-20.438v1.6859q0 1.4795 1.273 2.5117l1.686 1.4107q1.3763 1.0666 2.6149 1.0666h14.864q1.1698 0 2.03 0.86017 0.86019 0.82577 0.86019 2.03 0 1.1698-0.89459 2.03-0.86017 0.86017-1.9956 0.86017h-15.242q-1.5139 0-3.1998-0.61932-1.6515-0.65374-2.4429-1.3419l-2.5805-2.2708q-1.2042-0.9634-2.03-2.6837-0.79135-1.7203-0.79135-3.1654v-13.247q0-1.1354 0.86017-3.0622 0.89458-1.9268 2.2364-2.9934l2.4085-1.8924q2.3741-1.9268 5.2642-1.9268h8.12q3.0622 0 5.7804 2.5461l2.1676 2.0644q2.3397 2.0988 2.3397 6.2621zm-23.259-0.44729v4.4729h17.548v-4.0256q0-1.6171-0.99781-2.4773l-1.6859-1.4795q-1.3075-1.0666-2.3397-1.0666h-7.2599q-1.3419 0-2.4429 0.92898l-1.6859 1.4107q-1.1354 0.86017-1.1354 2.2364z"/></g><path d="m187.14 675.58c-16.18-0.15005-29.706 13.244-30.633 29.355-1.0627 18.464 14.002 34.174 32.229 35.135l-4e-3 -11.715c-11.846-0.93883-21.604-11.344-20.51-23.424 0.92894-10.251 10.013-18.687 20.496-17.578 8.6556 0.91558 15.777 8.6812 14.648 17.566-0.89669 7.0607-7.3535 12.878-14.639 11.721l4e-3 11.715c13.676 1.0839 25.403-9.9964 26.35-23.438 1.0754-15.273-11.331-28.327-26.367-29.279-0.52714-0.0334-1.0523-0.0537-1.5742-0.0586z" fill="url(#linearGradient1166)" fill-rule="evenodd"/><g fill="#383c47"><path d="m43.843 716.37-9.4718 11.263q-0.92996 1.2055-2.3077 1.2055-1.24 0-2.0666-0.86107-0.82662-0.86108-0.82662-2.101 0-1.1022 0.55108-1.7566l10.367-12.434-9.5752-11.401q-0.65442-0.75774-0.65442-1.7222 0-1.1366 0.79219-2.0321 0.82663-0.92996 2.101-0.92996 1.4466 0 2.3421 1.0677l8.7485 10.505 8.9552-10.574q0.82664-0.99885 2.0666-0.99885 1.1022 0 1.9977 0.79219 0.89552 0.75775 0.89552 1.9632 0 1.1711-0.37888 1.6188l-9.7474 11.78 10.23 12.365q0.58553 0.65442 0.58553 1.6188 0 1.3088-0.89552 2.2044-0.86108 0.86107-1.9977 0.86107-1.3433 0-2.3421-1.1711z"/><path d="m70.64 725.95v-27.451q0-1.2055 0.82663-2.0321 0.86107-0.86108 2.0666-0.86108 2.2388 0 2.8243 2.2044 2.411-2.2732 5.3731-2.2732 3.4787 0 5.7175 2.9621 2.7554-2.9621 6.062-2.9621 2.6866 0 4.6498 1.9288 1.9977 1.8944 2.1355 4.8565l0.82664 23.628q0 1.1711-0.86108 2.0321-0.86107 0.86107-2.0321 0.86107-1.2055 0-2.0666-0.86107-0.86107-0.86108-0.89552-2.0321l-0.68886-22.698q-0.0689-1.8599-1.1366-1.8599-0.58553 0-1.2055 0.51664l-3.4443 2.8932v21.148q0 1.1711-0.86108 1.9977-0.82663 0.82663-2.0321 0.82663-1.1711 0-2.0321-0.82663-0.86107-0.86108-0.86107-2.0666v-23.008q0-1.481-1.2744-1.481-0.61998 0-1.1366 0.44776l-4.1676 3.5132v20.597q0 1.1711-0.82663 2.0321-0.82663 0.86107-1.9977 0.86107-1.2055 0-2.101-0.86107-0.86107-0.86108-0.86107-2.0321z"/><path d="m137.32 728.84h-17.497q-1.2055 0-2.0666-0.86107-0.82663-0.89552-0.82663-2.101 0-1.1711 0.82663-2.0321 0.86108-0.86108 2.0666-0.86108h5.7864v-34.133h-5.8553q-1.2055 0-2.0666-0.82663-0.82664-0.86108-0.82664-2.0666 0-1.2055 0.82664-2.0321 0.86107-0.86108 2.0666-0.86108h8.8174q1.1711 0 2.0322 0.86108 0.86107 0.86107 0.86107 2.0321v37.026h5.8553q1.1711 0 2.0321 0.86108 0.86107 0.86107 0.86107 2.0321 0 1.2055-0.86107 2.101-0.82664 0.86107-2.0321 0.86107z"/></g><path d="m187.92 696.11c3.4031 9e-5 20.375 0.27003 20.378 5.625v3e-3c-0.54747 8.6898-4.9291 13.031-9.4133 19.115 0 2.9983-5.9678 3.6293-10.976 3.6293-5.0062 0-10.976-0.63101-10.976-3.6293-0.56401-0.48838-2.8035-2.9843-4.8067-5.837-0.0933 3e-3 -0.17856 6e-3 -0.31201 6e-3 -1.8151 0-6.3091-0.32443-8.8717-3.3291-3.2814-3.8486-3.8232-8.5922-1.2363-10.8 0.83364-0.71102 1.9125-1.0862 3.1201-1.0862 0.9783 0 2.0208 0.26221 3.0553 0.7241 2.3539-4.189 16.914-4.4212 20.039-4.4212zm3e-3 3.2849c-9.2992 0-15.022 1.3895-16.722 2.343 1.6995 0.95262 7.4227 2.343 16.722 2.343 9.3013 0 15.019-1.3904 16.719-2.343-1.6998-0.95349-7.4177-2.343-16.719-2.343zm-23.098 3.697c-0.42155 0-0.75455 0.10052-0.98902 0.30024-1.0008 0.85208-0.52826 3.6718 1.6013 6.1696 1.1117 1.3013 2.9924 1.8231 4.4771 2.034-1.1755-2.2701-1.9549-4.7857-2.2518-7.4529-1.0726-0.71512-2.0998-1.0508-2.8375-1.0508z" fill="#eeefae" stroke-width=".097694"/><path d="m188.73 675.72v11.616c8.6271 0.93829 15.714 8.6185 14.588 17.404-0.89447 6.9815-7.3244 12.732-14.588 11.621v11.994c13.656 1.0443 25.357-10.313 26.303-23.62 1.0738-15.116-11.296-28.038-26.303-29.016z" fill="url(#linearGradient860-1-9)" fill-rule="evenodd"/><path d="m200.06 692.9h4.2256a4.2306 4.2306 0 0 0 4.2256-4.2256v-2.1128h-4.2256v2.1128h-4.2256a4.2306 4.2306 0 0 0-4.2256 4.2256v2.1128h4.2256z" fill="#eeefae" stroke-width=".2641"/></g></svg>
