<svg width="70" height="70.001" version="1.1" viewBox="0 0 70 70.001" xml:space="preserve" xmlns="http://www.w3.org/2000/svg">
<path d="m0 35.001c0-19.332 15.67-35.001 34.999-35.001 19.331 0 35.001 15.669 35.001 35.001 0 19.329-15.67 35-35.001 35-19.329 0-34.999-15.671-34.999-35z" fill="#32bea6" stroke-width=".14108"/>
<path d="m56.548 23.925c-0.35299-0.68638-2.0732-2.259-4.9749-0.83113-2.9013 1.4281-1.499 4.5642-1.499 4.5642 1.0816 2.2181 1.6902 4.7081 1.6902 7.3429 0 9.2583-7.5058 16.764-16.765 16.764-9.2578 0-16.764-7.506-16.764-16.764 0-8.6657 6.5745-15.794 15.005-16.672v4.3444s-0.01185 0.25903 0.2579 0.42311c0.26891 0.16409 0.53866 0 0.53866 0l13.908-8.1946s0.31194-0.16394 0.31194-0.48476c0-0.26425-0.31194-0.45218-0.31194-0.45218l-13.861-8.1482s-0.31603-0.22644-0.59679-0.11654c-0.28048 0.10906-0.24605 0.49112-0.24605 0.49112v4.6548c-12.556 0.90182-22.465 11.366-22.465 24.155 0 13.378 10.846 24.224 24.223 24.224 13.379 0 24.225-10.845 24.225-24.224 1.41e-4 -3.9924-0.96671-7.7568-2.6767-11.076z" fill="#f7f7f7" stroke-width=".14108"/>















</svg>
