<svg width="18.521mm" height="18.521mm" version="1.1" viewBox="0 0 18.521 18.521" xmlns="http://www.w3.org/2000/svg">
 <g transform="translate(327.58 -45.019)">
  <g fill="#fff" aria-label="A">
   <g transform="matrix(.30868 0 0 .30868 -226.46 43.926)">
    <g transform="translate(-.93465 1.4173)">
     <rect transform="rotate(-90)" x="-42.122" y="-326.65" width="20" height="60" fill="#008000" style="paint-order:markers fill stroke"/>
     <rect transform="rotate(-90)" x="-22.122" y="-326.65" width="20" height="60" fill="#f00" style="paint-order:markers fill stroke"/>
     <rect transform="rotate(-90)" x="-62.122" y="-326.65" width="20" height="60" fill="#000080" style="paint-order:markers fill stroke"/>
    </g>
    <path d="m-279.52 50.639q0.37374 1.1212 0.46718 1.7753 0.0934 0.65405-0.24916 0.99665-0.3426 0.31145-1.2147 0.37374-0.87207 0.09344-2.3982 0.09344-1.5884 0-2.4916-0.06229-0.87208-0.03114-1.3393-0.15573-0.46718-0.15573-0.65405-0.40489t-0.31145-0.65405l-2.7096-8.0978h-15.137l-2.5539 7.8798q-0.12458 0.43604-0.3426 0.74749-0.18687 0.28031-0.65405 0.46718-0.43603 0.15573-1.277 0.21802-0.80978 0.06229-2.149 0.06229-1.4327 0-2.2425-0.09344t-1.1212-0.43604q-0.31145-0.37374-0.21802-1.0278 0.0934-0.65405 0.46719-1.7441l12.427-35.755q0.18688-0.52947 0.43604-0.84093 0.24916-0.3426 0.77863-0.49833 0.56062-0.18687 1.5261-0.21802 0.96551-0.06229 2.5539-0.06229 1.8376 0 2.9277 0.06229 1.0901 0.03115 1.6818 0.21802 0.62291 0.15573 0.87207 0.49833 0.28031 0.3426 0.46719 0.93436zm-18.5-29.557h-0.0311l-5.6996 17.13h11.43z" fill="#fff" stroke-width="3.9866px"/>
   </g>
  </g>
 </g>
</svg>
